<svg width="65" height="65" viewBox="0 0 65 65" fill="none" xmlns="http://www.w3.org/2000/svg">
<path d="M28.2884 8.37786C31.8103 8.37786 34.7998 9.15519 37.293 10.5442C37.2894 10.062 37.2465 9.58695 37.168 9.12992C37.0823 8.64408 36.9573 8.1727 36.7965 7.73002C36.618 7.23706 36.8716 6.69358 37.3609 6.51368C37.8502 6.33379 38.3931 6.58922 38.5681 7.08231C38.7718 7.64369 38.9254 8.21955 39.0289 8.80251C39.1968 9.77053 39.2289 10.7638 39.1146 11.7391C40.2362 12.5884 41.2363 13.5852 42.115 14.708C44.4725 17.7128 45.9477 21.603 46.6334 25.9828C47.9729 26.0979 49.1729 26.7817 50.0587 27.8289C50.9946 28.9409 51.5768 30.4596 51.5768 32.1257C51.5768 33.7919 50.9946 35.3106 50.0587 36.419C49.0944 37.5634 47.7514 38.2724 46.262 38.2832C46.187 38.5567 46.112 38.8266 46.0297 39.0965C45.3547 41.3169 44.3903 43.3933 43.2331 45.2754L44.5653 48.104L50.8088 54.3982C51.1803 54.7688 51.1803 55.3697 50.8088 55.7441C50.4409 56.1147 49.8445 56.1147 49.4729 55.7441L46.3798 52.624L43.0472 55.9852L50.1051 63.0963H56.7738L52.5019 58.7923C52.1339 58.4217 52.1339 57.817 52.5019 57.4463C52.8697 57.0757 53.4698 57.0757 53.8377 57.4463L59.7241 63.3769C60.092 63.7476 60.092 64.3522 59.7241 64.7229C59.5383 64.9064 59.2955 65 59.0561 65H49.7122C49.4515 65 49.2121 64.892 49.0408 64.7193L38.5574 54.1571L36.8823 53.3546C37.1037 55.064 37.436 56.6978 37.8645 58.2309C38.4254 60.2209 39.1432 62.0274 39.9934 63.5965C40.2434 64.0571 40.0755 64.633 39.6184 64.8813C39.1612 65.1332 38.5897 64.9641 38.3397 64.5034C37.4181 62.8049 36.643 60.865 36.0501 58.7419C35.6 57.1477 35.2535 55.4383 35.0214 53.6498C34.1319 54.1896 33.2354 54.6358 32.3532 54.9813C30.9495 55.5283 29.5743 55.8198 28.2884 55.8198C26.1989 55.8198 23.8557 55.0389 21.5555 53.6426C21.3233 55.4347 20.9769 57.1442 20.5268 58.7419C19.9303 60.8651 19.1552 62.8049 18.2372 64.5034C17.9872 64.9639 17.4156 65.1332 16.9585 64.8813C16.5013 64.633 16.3334 64.0572 16.5834 63.5965C17.4299 62.0274 18.1514 60.2209 18.7085 58.2309C19.2158 56.4279 19.5873 54.4846 19.798 52.4478C18.137 51.1954 16.5404 49.6337 15.1189 47.8234C13.0043 45.128 11.272 41.8748 10.3112 38.2832C8.82185 38.2724 7.48229 37.5635 6.51798 36.419C5.57849 35.3106 5 33.792 5 32.1257C5 30.4596 5.57861 28.9409 6.51798 27.8289C7.40379 26.7817 8.60398 26.098 9.94341 25.9828C10.6291 21.6031 12.1043 17.7129 14.4618 14.708C15.3404 13.5852 16.337 12.5884 17.4586 11.7391C17.4157 11.354 17.3943 10.9654 17.3943 10.5767C17.3943 7.65093 18.6195 5.00231 20.5982 3.08774C22.57 1.18041 25.2881 0 28.2884 0C29.7637 0 31.1781 0.287928 32.471 0.809704C33.8104 1.35319 35.0142 2.14842 36.0215 3.13091C36.3929 3.49793 36.4036 4.09892 36.0393 4.47686C35.6786 4.85111 35.0821 4.85835 34.707 4.49488C33.8748 3.67794 32.8783 3.023 31.7674 2.5732C30.7031 2.14131 29.5278 1.90378 28.2884 1.90378C25.7918 1.90378 23.5343 2.87903 21.9055 4.45528C20.2947 6.01705 19.2946 8.16915 19.2839 10.5442C21.7735 9.15519 24.7631 8.37786 28.2884 8.37786ZM39.4504 41.6765C38.9789 41.9609 38.4754 42.3028 37.9539 42.6986C37.1324 43.3212 36.2716 44.0768 35.4144 44.9369C34.5607 45.8006 33.8106 46.6679 33.1926 47.4956C32.7998 48.0211 32.4604 48.5248 32.1818 48.9999C34.425 50.076 36.6716 51.1483 38.9183 52.2244L42.6473 48.4638L39.4504 41.6765ZM43.7866 50.0111L40.4505 53.3723L41.7113 54.639L45.0438 51.2778L43.7866 50.0111ZM23.6629 34.4467C24.0414 34.0832 24.6381 34.0977 24.9953 34.4791C25.356 34.8606 25.3382 35.4615 24.9632 35.8215C24.4237 36.3397 23.7844 36.7535 23.0736 37.0379C22.3878 37.3151 21.6484 37.4661 20.877 37.4661C20.1054 37.4661 19.3625 37.3149 18.6802 37.0415C17.9694 36.7535 17.3301 36.3397 16.7908 35.8215C16.4121 35.4615 16.3979 34.8606 16.7586 34.4791C17.1157 34.0977 17.7122 34.0832 18.0909 34.4467C18.4588 34.7994 18.8945 35.0836 19.3732 35.278C19.8304 35.4615 20.3377 35.5623 20.877 35.5623C21.4163 35.5623 21.9236 35.4615 22.3807 35.278C22.8594 35.0837 23.2915 34.7994 23.6629 34.4467ZM38.4861 34.4467C38.8611 34.0832 39.4611 34.0977 39.8184 34.4791C40.1756 34.8606 40.1612 35.4615 39.7862 35.8215C39.2469 36.3397 38.6076 36.7535 37.8968 37.0379C37.2111 37.3151 36.4681 37.4661 35.7001 37.4661C34.9285 37.4661 34.1856 37.3149 33.4998 37.0415C32.7926 36.7535 32.1532 36.3397 31.6139 35.8215C31.2353 35.4615 31.2211 34.8606 31.5818 34.4791C31.939 34.0977 32.5355 34.0832 32.9141 34.4467C33.282 34.7994 33.7177 35.0836 34.1963 35.278C34.6535 35.4615 35.1607 35.5623 35.7001 35.5623C36.2359 35.5623 36.7431 35.4615 37.2039 35.278C37.6824 35.0837 38.1145 34.7994 38.4861 34.4467ZM28.2884 53.9158C29.3493 53.9158 30.4958 53.671 31.6745 53.2104C32.4675 52.9009 33.2711 52.498 34.0712 52.0084L30.4779 50.2919C30.01 50.0687 29.8063 49.5002 30.0278 49.0252C30.4136 48.2119 30.9779 47.2978 31.6851 46.3477C32.3638 45.4445 33.171 44.5088 34.0782 43.5911C34.989 42.6735 35.9178 41.8601 36.8143 41.18C37.7572 40.4674 38.6644 39.8988 39.4752 39.5102C39.9467 39.2871 40.5075 39.4886 40.729 39.9637L42.2541 43.2025C43.0543 41.7486 43.7293 40.1867 44.2294 38.5457C44.8687 36.4297 45.2044 34.2381 45.1974 32.0249C42.9935 31.4132 40.9112 30.5387 38.9895 29.4374C37.0643 28.3399 35.2998 27.0155 33.7354 25.5041C33.4603 25.7056 33.1817 25.9072 32.896 26.1051C32.3924 26.4541 31.871 26.796 31.3352 27.1308C30.8958 27.4042 30.3137 27.2675 30.0422 26.8213C29.7671 26.375 29.9064 25.7921 30.3458 25.5149C30.8423 25.2054 31.3352 24.8816 31.8245 24.5434C32.2995 24.2123 32.7746 23.8667 33.2496 23.5032C33.639 23.201 34.1854 23.2549 34.5141 23.6113C36.0929 25.2307 37.9109 26.6414 39.9183 27.7857C41.5471 28.7178 43.3009 29.4771 45.1475 30.035C44.8687 24.421 43.4259 19.4368 40.6398 15.8813C37.9109 12.4049 33.8533 10.2816 28.2884 10.2816C22.7199 10.2816 18.6623 12.4049 15.9371 15.8813C12.9688 19.6671 11.5259 25.0723 11.3902 31.1361C13.9441 31.075 16.4228 30.7654 18.7981 30.2329C21.5591 29.6174 24.1987 28.6998 26.6776 27.5231C27.1491 27.2963 27.7098 27.5015 27.9349 27.9765C28.1562 28.4516 27.9527 29.0165 27.4848 29.2396C24.8845 30.4741 22.1127 31.4349 19.2053 32.0863C16.6835 32.6476 14.0726 32.9751 11.4008 33.0399C11.6294 38.2508 13.7333 42.9975 16.5978 46.6466C19.2161 49.9895 23.8415 53.9158 28.2884 53.9158ZM46.8834 27.9475C47.0191 29.297 47.0871 30.6825 47.0871 32.1003C47.0871 33.5434 46.9513 34.9614 46.6977 36.3397C47.4406 36.2173 48.1121 35.7999 48.6264 35.1916C49.2802 34.4179 49.6838 33.3347 49.6838 32.1256C49.6838 30.9164 49.2802 29.8332 48.6264 29.0559C48.1549 28.4981 47.5549 28.1059 46.8834 27.9475ZM9.87575 36.3397C9.62576 34.9649 9.48992 33.5471 9.48992 32.1003C9.48992 30.6825 9.55418 29.2969 9.68989 27.9475C9.02194 28.1059 8.41838 28.4981 7.9504 29.0559C7.29669 29.8332 6.88957 30.9164 6.88957 32.1256C6.88957 33.3347 7.29669 34.418 7.9504 35.1916C8.46135 35.7999 9.13282 36.2173 9.87575 36.3397Z" fill="url(#paint0_linear_24_598)"/>
<defs>
<linearGradient id="paint0_linear_24_598" x1="5" y1="41.4447" x2="60" y2="41.4447" gradientUnits="userSpaceOnUse">
<stop stop-color="#C88C44"/>
<stop offset="1" stop-color="#E9C883"/>
</linearGradient>
</defs>
</svg>
