<svg width="65" height="65" viewBox="0 0 65 65" fill="none" xmlns="http://www.w3.org/2000/svg">
<path d="M59.7692 40.3711C60.9992 40.3711 62 39.3744 62 38.1494V2.22168C62 0.996709 60.9992 0 59.7692 0H6.23077C5.00079 0 4 0.996709 4 2.22168V38.1494C4 39.3744 5.00079 40.3711 6.23077 40.3711H8.97143V42.2754H6.23077C5.00079 42.2754 4 43.2721 4 44.4971V57.1791C4 57.705 4.42805 58.1312 4.95604 58.1312C5.48404 58.1312 5.91209 57.705 5.91209 57.1791V44.4971C5.91209 44.322 6.05511 44.1797 6.23077 44.1797H8.97143V45.1318C8.97143 46.7068 10.258 47.9883 11.8396 47.9883H14.5802V49.8926H11.8396C10.258 49.8926 8.97143 51.174 8.97143 52.749C8.97143 54.324 10.258 55.6055 11.8396 55.6055H14.2211L11.7819 63.0957H6.23077C6.05511 63.0957 5.91209 62.9534 5.91209 62.7783V61.6224C5.91209 61.0964 5.48404 60.6703 4.95604 60.6703C4.42805 60.6703 4 61.0964 4 61.6224V62.7783C4 64.0033 5.00079 65 6.23077 65H59.7692C60.9992 65 62 64.0033 62 62.7783V44.4971C62 43.2721 60.9992 42.2754 59.7692 42.2754H28.9846V40.3711H59.7692ZM6.23077 38.4668C6.05511 38.4668 5.91209 38.3245 5.91209 38.1494V2.22168C5.91209 2.04661 6.05511 1.9043 6.23077 1.9043H59.7692C59.9449 1.9043 60.0879 2.04661 60.0879 2.22168V38.1494C60.0879 38.3245 59.9449 38.4668 59.7692 38.4668H28.9846V37.5146C28.9846 37.1809 28.9262 36.8605 28.8202 36.5625H56.5824C57.4611 36.5625 58.1758 35.8507 58.1758 34.9756V5.39551C58.1758 4.52042 57.4611 3.80859 56.5824 3.80859H54.1954C53.6674 3.80859 53.2393 4.23478 53.2393 4.76074C53.2393 5.28671 53.6674 5.71289 54.1954 5.71289H56.2637V6.20331L27.6924 34.6582H9.73626V33.8694L38.008 5.71289H49.7338C50.2618 5.71289 50.6899 5.28671 50.6899 4.76074C50.6899 4.23478 50.2618 3.80859 49.7338 3.80859H9.41758C8.53891 3.80859 7.82418 4.52042 7.82418 5.39551V34.9756C7.82418 35.7577 8.39576 36.4079 9.14441 36.5375C9.03262 36.8426 8.97143 37.1716 8.97143 37.5146V38.4668H6.23077ZM56.2637 25.9534L47.5235 34.6582H38.509L56.2637 16.9758V25.9534ZM56.2637 28.6466V34.6582H50.2275L56.2637 28.6466ZM56.2637 14.2826L35.8048 34.6582H30.3966L56.2637 8.89649V14.2826ZM9.73626 25.7901L29.8957 5.71289H35.3038L9.73626 31.1763V25.7901ZM9.73626 23.097V13.4021L17.4569 5.71289H27.1915L9.73626 23.097ZM9.73626 10.7089V5.71289H14.7527L9.73626 10.7089ZM10.8835 45.1318V37.5146C10.8835 36.9896 11.3123 36.5625 11.8396 36.5625H26.1165C26.6437 36.5625 27.0725 36.9896 27.0725 37.5146V45.1318C27.0725 45.6569 26.6437 46.084 26.1165 46.084H11.8396C11.3123 46.084 10.8835 45.6569 10.8835 45.1318ZM16.4923 47.9883H21.4637V49.8926H16.4923V47.9883ZM10.8835 52.749C10.8835 52.2239 11.3123 51.7969 11.8396 51.7969H26.1165C26.6437 51.7969 27.0725 52.2239 27.0725 52.749C27.0725 53.2741 26.6437 53.7012 26.1165 53.7012H22.4198H15.5363H11.8396C11.3123 53.7012 10.8835 53.2741 10.8835 52.749ZM13.7921 63.0957L16.2312 55.6055H21.7248L24.164 63.0957H13.7921ZM60.0879 44.4971V62.7783C60.0879 62.9534 59.9449 63.0957 59.7692 63.0957H33.956V44.1797H59.7692C59.9449 44.1797 60.0879 44.322 60.0879 44.4971ZM32.044 44.1797V63.0957H26.1741L23.7349 55.6055H26.1165C27.698 55.6055 28.9846 54.324 28.9846 52.749C28.9846 51.174 27.698 49.8926 26.1165 49.8926H23.3758V47.9883H26.1165C27.698 47.9883 28.9846 46.7068 28.9846 45.1318V44.1797H32.044Z" fill="url(#paint0_linear_24_601)"/>
<path d="M37.5714 62H56.4286C57.2951 62 58 61.2452 58 60.3173V56.6827C58 55.7548 57.2951 55 56.4286 55H37.5714C36.7049 55 36 55.7548 36 56.6827V60.3173C36 61.2452 36.7049 62 37.5714 62ZM37.8857 57.0192H56.1143V59.9808H37.8857V57.0192Z" fill="url(#paint1_linear_24_601)"/>
<path d="M37.5714 53H56.4286C57.2951 53 58 52.2452 58 51.3173V47.6827C58 46.7548 57.2951 46 56.4286 46H37.5714C36.7049 46 36 46.7548 36 47.6827V51.3173C36 52.2452 36.7049 53 37.5714 53ZM37.8857 48.0192H56.1143V50.9808H37.8857V48.0192Z" fill="url(#paint2_linear_24_601)"/>
<defs>
<linearGradient id="paint0_linear_24_601" x1="4" y1="41.4447" x2="62" y2="41.4447" gradientUnits="userSpaceOnUse">
<stop stop-color="#C88C44"/>
<stop offset="1" stop-color="#E9C883"/>
</linearGradient>
<linearGradient id="paint1_linear_24_601" x1="36" y1="59.4633" x2="58" y2="59.4633" gradientUnits="userSpaceOnUse">
<stop stop-color="#C88C44"/>
<stop offset="1" stop-color="#E9C883"/>
</linearGradient>
<linearGradient id="paint2_linear_24_601" x1="36" y1="50.4633" x2="58" y2="50.4633" gradientUnits="userSpaceOnUse">
<stop stop-color="#C88C44"/>
<stop offset="1" stop-color="#E9C883"/>
</linearGradient>
</defs>
</svg>
