<svg width="65" height="65" viewBox="0 0 65 65" fill="none" xmlns="http://www.w3.org/2000/svg">
<path d="M10.0323 10.0323H8.96775V8.96775C8.96775 8.43324 8.53451 8 8 8C7.46549 8 7.03225 8.43324 7.03225 8.96775V10.0323H5.96775C5.43324 10.0323 5 10.4655 5 11C5 11.5345 5.43324 11.9677 5.96775 11.9677H7.03225V13.0323C7.03225 13.5668 7.46549 14 8 14C8.53451 14 8.96775 13.5668 8.96775 13.0323V11.9677H10.0323C10.5668 11.9677 11 11.5345 11 11C11 10.4655 10.5666 10.0323 10.0323 10.0323Z" fill="url(#paint0_linear_24_606)"/>
<path d="M60.0323 10.0323H58.9677V8.96775C58.9677 8.43324 58.5345 8 58 8C57.4655 8 57.0323 8.43324 57.0323 8.96775V10.0323H55.9677C55.4332 10.0323 55 10.4655 55 11C55 11.5345 55.4332 11.9677 55.9677 11.9677H57.0323V13.0323C57.0323 13.5668 57.4655 14 58 14C58.5345 14 58.9677 13.5668 58.9677 13.0323V11.9677H60.0323C60.5668 11.9677 61 11.5345 61 11C61 10.4655 60.5666 10.0323 60.0323 10.0323Z" fill="url(#paint1_linear_24_606)"/>
<path d="M35.0323 4.03225H33.9677V2.96775C33.9677 2.43324 33.5345 2 33 2C32.4655 2 32.0323 2.43324 32.0323 2.96775V4.03225H30.9677C30.4332 4.03225 30 4.46549 30 5C30 5.53451 30.4332 5.96775 30.9677 5.96775H32.0323V7.03225C32.0323 7.56676 32.4655 8 33 8C33.5345 8 33.9677 7.56676 33.9677 7.03225V5.96775H35.0323C35.5668 5.96775 36 5.53451 36 5C36 4.46549 35.5666 4.03225 35.0323 4.03225Z" fill="url(#paint2_linear_24_606)"/>
<path d="M30.6089 20.7949L15.9217 15.144C14.8726 14.7406 13.7133 15.2102 13.2248 16.2365L7.74071 27.7578C7.39802 28.4778 7.13447 29.2277 6.94991 29.994C6.94463 30.0118 6.93733 30.0286 6.93293 30.0467C6.4969 31.8804 6.53288 33.7309 6.96312 35.4606C6.96677 35.4752 6.97017 35.4899 6.97382 35.5045C6.99533 35.5897 7.01722 35.6746 7.04074 35.7592C7.07081 35.8685 7.10264 35.9776 7.1361 36.0862C7.14994 36.1309 7.16428 36.1752 7.17862 36.2196C7.25171 36.4474 7.33109 36.6736 7.41878 36.8973C7.43312 36.9339 7.44985 36.9693 7.46457 37.0056C7.4969 37.0854 7.53087 37.1643 7.56496 37.2433C7.60509 37.3366 7.64497 37.43 7.68762 37.522C7.71353 37.578 7.74159 37.633 7.76851 37.6886C7.93771 38.0392 8.1239 38.3793 8.32644 38.7082C8.3672 38.7746 8.40746 38.8412 8.44961 38.9068C8.4993 38.9838 8.55075 39.0594 8.6022 39.1351C8.65605 39.2147 8.71052 39.2937 8.76638 39.3719C8.81204 39.4354 8.85834 39.4985 8.90526 39.561C8.97471 39.6539 9.04566 39.7455 9.11787 39.8363C9.15548 39.8835 9.19285 39.9308 9.23122 39.9774C9.32582 40.0925 9.42319 40.2054 9.52232 40.3169C9.54145 40.3383 9.56007 40.3603 9.57931 40.3817C10.0876 40.9437 10.6547 41.4557 11.2741 41.9085C11.2839 41.9157 11.2939 41.9227 11.3038 41.9299C11.4435 42.0313 11.5857 42.1295 11.7307 42.2247C11.7526 42.2392 11.7746 42.2535 11.7967 42.2677C11.9293 42.3534 12.064 42.4364 12.2008 42.5167C12.2322 42.5353 12.2636 42.5539 12.2951 42.5722C12.4233 42.6458 12.5535 42.7165 12.6853 42.7853C12.7241 42.8057 12.7624 42.8268 12.8015 42.8466C12.8327 42.8624 12.8649 42.8766 12.8963 42.8921L8.41124 54.9391C8.22895 54.8693 8.02968 54.8583 7.84085 54.9079L0.912143 56.7347C0.396604 56.8704 0.0306446 57.325 0.00183576 57.8659C-0.0270988 58.4067 0.288288 58.899 0.786592 59.0908L13.3359 63.9192C13.4777 63.9737 13.6242 64 13.7689 64C14.1327 64 14.485 63.8335 14.7215 63.5297C15.0521 63.1049 15.0741 62.5181 14.7761 62.069L10.7727 56.0362C10.6635 55.8715 10.5067 55.7454 10.3242 55.6752L14.8072 43.6308C15.78 43.9039 16.7804 44.0398 17.7796 44.0398C19.5131 44.0398 21.2425 43.6312 22.8166 42.8219C25.6039 41.3891 27.6851 38.8136 28.5266 35.7554L31.9187 23.4291C32.2209 22.331 31.6578 21.1985 30.6089 20.7949ZM12.0307 61.3641L3.42857 58.0544L8.02427 56.8429L9.37539 57.3627L12.0307 61.3641ZM30.1002 22.9117L28.8772 27.3565L17.0239 28.4569C16.5046 28.5049 16.1222 28.9721 16.1696 29.5001C16.217 30.0281 16.6757 30.4169 17.1957 30.3688L28.3328 29.3349L26.7083 35.2382C26.0093 37.7787 24.2802 39.9183 21.9648 41.1086C19.6493 42.2989 16.9293 42.446 14.5027 41.5123C14.3596 41.4571 14.2183 41.3979 14.0786 41.336C14.0437 41.3205 14.0096 41.3038 13.9749 41.2878C13.8674 41.2385 13.7607 41.188 13.6556 41.1347C13.6227 41.1181 13.5903 41.1008 13.5577 41.0838C13.4471 41.0261 13.3377 40.9666 13.2297 40.9046C13.2071 40.8917 13.1846 40.8786 13.162 40.8656C13.0345 40.7909 12.9084 40.7137 12.7848 40.633C12.7831 40.632 12.7814 40.631 12.7797 40.6298C12.2449 40.2805 11.748 39.8766 11.296 39.426C11.291 39.4209 11.2858 39.4159 11.2807 39.4108C11.1724 39.3023 11.0666 39.191 10.9635 39.0772C10.9599 39.0731 10.956 39.0691 10.9523 39.065C10.7429 38.8329 10.5451 38.5897 10.3592 38.337C10.3399 38.3106 10.3215 38.2836 10.3024 38.2572C10.2361 38.1652 10.1715 38.072 10.1084 37.9774C10.0777 37.9313 10.0477 37.8846 10.0177 37.8378C9.96804 37.7603 9.91961 37.6818 9.87206 37.6028C9.84035 37.55 9.80853 37.4972 9.77783 37.4437C9.73116 37.3625 9.68637 37.28 9.64209 37.1972C9.61592 37.1482 9.58862 37.0999 9.56334 37.0505C9.49767 36.9225 9.43464 36.7929 9.37463 36.6614C9.35815 36.6253 9.34331 36.5886 9.3272 36.5523C9.28053 36.4464 9.23499 36.34 9.19197 36.2322C9.17687 36.1943 9.16253 36.1559 9.14781 36.1178C9.10252 35.9996 9.05912 35.8808 9.01861 35.7612C9.01157 35.7404 9.00427 35.7195 8.99735 35.6985C8.51339 34.2317 8.39866 32.6716 8.64322 31.1625L12.4382 30.8102C12.9575 30.762 13.3399 30.295 13.2925 29.767C13.2451 29.2389 12.785 28.849 12.2665 28.8983L9.18631 29.1843C9.26481 28.9855 9.34771 28.788 9.44005 28.5941L14.9243 17.0727C14.9695 16.9776 15.0617 16.9219 15.1594 16.9219C15.1906 16.9219 15.2222 16.9276 15.2531 16.9395L29.9401 22.5904C30.0684 22.6398 30.1371 22.7777 30.1002 22.9117Z" fill="url(#paint3_linear_24_606)"/>
<path d="M64.9982 57.8661C64.9694 57.3254 64.6036 56.8709 64.088 56.7349L57.1592 54.9081C56.9705 54.8585 56.7708 54.8694 56.588 54.9395L52.1047 42.8922C52.1357 42.8768 52.1677 42.8628 52.1986 42.8472C52.2379 42.8272 52.2764 42.8061 52.3153 42.7858C52.4467 42.7171 52.5768 42.6465 52.7047 42.5731C52.7367 42.5546 52.7684 42.5357 52.8001 42.517C52.9365 42.437 53.0707 42.3542 53.2029 42.2688C53.2254 42.2542 53.2478 42.2396 53.2702 42.2249C53.4146 42.13 53.5565 42.032 53.6958 41.931C53.706 41.9235 53.7163 41.9164 53.7264 41.909C54.3455 41.4563 54.9122 40.9447 55.4202 40.383C55.4403 40.3608 55.4596 40.3379 55.4796 40.3155C55.5778 40.205 55.6743 40.0931 55.7682 39.979C55.8072 39.9317 55.8453 39.8834 55.8835 39.8353C55.955 39.7455 56.0252 39.6549 56.0939 39.563C56.1414 39.4995 56.1885 39.4356 56.2348 39.371C56.2897 39.2942 56.3432 39.2164 56.3963 39.1381C56.4486 39.0611 56.501 38.9842 56.5514 38.9058C56.5923 38.8424 56.6312 38.7777 56.6707 38.7135C56.876 38.3805 57.0644 38.0362 57.2355 37.6811C57.2608 37.6286 57.2873 37.5768 57.3119 37.5238C57.3552 37.4302 57.3958 37.3351 57.4367 37.2401C57.4699 37.163 57.5031 37.0859 57.5347 37.008C57.5496 36.9709 57.5666 36.9349 57.5812 36.8977C57.6692 36.6731 57.7489 36.4462 57.8221 36.2175C57.8361 36.1744 57.8499 36.1314 57.8634 36.088C57.8971 35.9784 57.9293 35.8684 57.9596 35.7579C57.9828 35.6744 58.0044 35.5906 58.0257 35.5065C58.0298 35.4901 58.0337 35.4736 58.0378 35.4572C58.4672 33.7286 58.5029 31.8793 58.0671 30.0469C58.0628 30.0287 58.0554 30.012 58.0501 29.9942C57.8657 29.2279 57.602 28.478 57.2593 27.758L51.7752 16.2368C51.2867 15.2103 50.1274 14.7404 49.0782 15.1441L34.3911 20.795C33.3422 21.1987 32.7791 22.3312 33.0813 23.429L36.4732 35.7554C36.6572 36.4243 36.9007 37.0702 37.1978 37.6861C38.259 39.8856 40.0056 41.7025 42.1831 42.8218C42.4574 42.9628 42.7364 43.0908 43.0192 43.2073C44.3601 43.7603 45.7885 44.0398 47.2201 44.0396C48.2191 44.0396 49.2196 43.9037 50.1925 43.6306L54.6754 55.6752C54.4928 55.7454 54.3361 55.8715 54.2269 56.0361L50.2235 62.069C49.9256 62.5179 49.9475 63.1049 50.2781 63.5297C50.5146 63.8336 50.867 64 51.2307 64C51.3754 64 51.5219 63.9737 51.6637 63.9192L64.2133 59.0907C64.7118 58.8992 65.0271 58.407 64.9982 57.8661ZM51.7705 40.905C51.6626 40.9671 51.5531 41.0265 51.4426 41.0842C51.41 41.1012 51.3775 41.1185 51.3447 41.1351C51.2395 41.1883 51.1328 41.239 51.0254 41.2882C50.9907 41.3041 50.9566 41.3208 50.9216 41.3365C50.7818 41.3985 50.6407 41.4577 50.4975 41.5127C48.0707 42.4464 45.3511 42.2993 43.0354 41.109C40.7199 39.9187 38.991 37.779 38.2919 35.2386L36.6674 29.3353L39.564 29.6042C40.0822 29.654 40.5426 29.2636 40.5901 28.7355C40.6375 28.2075 40.2549 27.7405 39.7356 27.6922L36.1231 27.3569L34.8999 22.912C34.863 22.7781 34.9317 22.6402 35.0597 22.5909L49.7466 16.94C49.8743 16.8908 50.016 16.9481 50.0756 17.0734L55.5597 28.5948C55.652 28.7887 55.7349 28.9862 55.8134 29.1849L44.7164 28.1546C44.1963 28.1063 43.7378 28.4954 43.6904 29.0234C43.6429 29.5514 44.0254 30.0182 44.5447 30.0666L56.3565 31.1633C56.601 32.6724 56.4862 34.2325 56.0024 35.6993C55.9955 35.7203 55.9883 35.7412 55.9811 35.762C55.9408 35.8816 55.8972 36.0004 55.8519 36.1186C55.8372 36.1567 55.823 36.195 55.8078 36.233C55.7649 36.3408 55.7193 36.4473 55.6725 36.5531C55.6566 36.5894 55.6416 36.6262 55.6251 36.6622C55.5651 36.7936 55.5021 36.9233 55.4364 37.0513C55.4111 37.1007 55.3838 37.149 55.3577 37.198C55.3134 37.2808 55.2686 37.3633 55.2219 37.4445C55.1912 37.498 55.1594 37.5508 55.1277 37.6036C55.0801 37.6827 55.0317 37.7611 54.982 37.8386C54.9521 37.8853 54.9221 37.932 54.8913 37.9783C54.8283 38.0728 54.7636 38.1659 54.6973 38.258C54.6783 38.2845 54.66 38.3115 54.6406 38.3378C54.4546 38.5905 54.2569 38.8337 54.0474 39.0658C54.0438 39.0699 54.0399 39.0739 54.0362 39.078C53.9332 39.1918 53.8275 39.303 53.7191 39.4116C53.7141 39.4167 53.7089 39.4217 53.7037 39.4268C53.2517 39.8774 52.7547 40.2813 52.22 40.6307C52.2184 40.6317 52.2167 40.6327 52.215 40.6339C52.0913 40.7146 51.9653 40.7917 51.8377 40.8664C51.8157 40.8791 51.793 40.892 51.7705 40.905ZM52.9693 61.3645L55.6246 57.363L56.9757 56.8432L61.5714 58.0548L52.9693 61.3645Z" fill="url(#paint4_linear_24_606)"/>
<defs>
<linearGradient id="paint0_linear_24_606" x1="5" y1="11.8257" x2="11" y2="11.8257" gradientUnits="userSpaceOnUse">
<stop stop-color="#C88C44"/>
<stop offset="1" stop-color="#E9C883"/>
</linearGradient>
<linearGradient id="paint1_linear_24_606" x1="55" y1="11.8257" x2="61" y2="11.8257" gradientUnits="userSpaceOnUse">
<stop stop-color="#C88C44"/>
<stop offset="1" stop-color="#E9C883"/>
</linearGradient>
<linearGradient id="paint2_linear_24_606" x1="30" y1="5.82566" x2="36" y2="5.82566" gradientUnits="userSpaceOnUse">
<stop stop-color="#C88C44"/>
<stop offset="1" stop-color="#E9C883"/>
</linearGradient>
<linearGradient id="paint3_linear_24_606" x1="0" y1="46.2429" x2="32" y2="46.2429" gradientUnits="userSpaceOnUse">
<stop stop-color="#C88C44"/>
<stop offset="1" stop-color="#E9C883"/>
</linearGradient>
<linearGradient id="paint4_linear_24_606" x1="33" y1="46.2429" x2="65" y2="46.2429" gradientUnits="userSpaceOnUse">
<stop stop-color="#C88C44"/>
<stop offset="1" stop-color="#E9C883"/>
</linearGradient>
</defs>
</svg>
