<svg width="65" height="65" viewBox="0 0 65 65" fill="none" xmlns="http://www.w3.org/2000/svg">
<path d="M40.0475 24H10.9525C10.4262 24 10 24.4479 10 25C10 25.5526 10.4262 26 10.9525 26H40.0475C40.5733 26 41 25.5526 41 25C41 24.4479 40.5733 24 40.0475 24Z" fill="url(#paint0_linear_32_969)"/>
<path d="M14.5003 51C12.0191 51 10 53.0191 10 55.5C10 57.9809 12.0191 60 14.5003 60C16.9814 60 19 57.9809 19 55.5C19 53.0191 16.9814 51 14.5003 51ZM14.5003 58.0534C13.0899 58.0534 11.9432 56.9077 11.9432 55.5C11.9432 54.0923 13.0904 52.9471 14.5003 52.9471C15.9101 52.9471 17.0568 54.0923 17.0568 55.5C17.0568 56.9077 15.9101 58.0534 14.5003 58.0534Z" fill="url(#paint1_linear_32_969)"/>
<path d="M33.0457 14H16.9543C16.4275 14 16 14.4479 16 15C16 15.5521 16.4275 16 16.9543 16H33.0457C33.5725 16 34 15.5521 34 15C34 14.4479 33.5725 14 33.0457 14Z" fill="url(#paint2_linear_32_969)"/>
<path d="M40.0475 20H10.9525C10.4262 20 10 20.4474 10 21C10 21.5521 10.4262 22 10.9525 22H40.0475C40.5733 22 41 21.5521 41 21C41 20.4474 40.5733 20 40.0475 20Z" fill="url(#paint3_linear_32_969)"/>
<path d="M40.0475 29H10.9525C10.4262 29 10 29.4479 10 30C10 30.5526 10.4262 31 10.9525 31H40.0475C40.5733 31 41 30.5526 41 30C41 29.4479 40.5733 29 40.0475 29Z" fill="url(#paint4_linear_32_969)"/>
<path d="M40.0475 33H10.9525C10.4262 33 10 33.4479 10 34C10 34.5521 10.4262 35 10.9525 35H40.0475C40.5733 35 41 34.5521 41 34C41 33.4479 40.5733 33 40.0475 33Z" fill="url(#paint5_linear_32_969)"/>
<path d="M40.0475 38H10.9525C10.4262 38 10 38.4474 10 39C10 39.5521 10.4262 40 10.9525 40H40.0475C40.5733 40 41 39.5521 41 39C41 38.4474 40.5733 38 40.0475 38Z" fill="url(#paint6_linear_32_969)"/>
<path d="M40.0475 42H10.9525C10.4262 42 10 42.4479 10 43C10 43.5526 10.4262 44 10.9525 44H40.0475C40.5733 44 41 43.5526 41 43C41 42.4479 40.5733 42 40.0475 42Z" fill="url(#paint7_linear_32_969)"/>
<path d="M61.9449 21.5057C61.8346 21.0955 61.5718 20.7534 61.2041 20.5421L58.8665 19.1982C58.626 19.0603 58.3522 18.9869 58.0745 18.9869C57.5071 18.9869 56.9785 19.2904 56.6953 19.7794L55.8437 21.2488C55.3235 21.2889 54.849 21.5796 54.5862 22.0328L53.3475 24.1692V1.58691C53.3475 0.711632 52.6346 0 51.7576 0H12.188C11.3111 0 10.5981 0.711632 10.5981 1.58691V3.32706H8.88894C8.01201 3.32706 7.29904 4.03919 7.29904 4.91398V6.65413H5.5899C4.71347 6.65413 4 7.36576 4 8.24104V63.4131C4 64.2884 4.71347 65 5.5899 65H45.16C46.0365 65 46.7499 64.2884 46.7499 63.4131V61.6729H48.4591C49.3355 61.6729 50.049 60.9608 50.049 60.086V58.3459H51.7581C52.6346 58.3459 53.348 57.6342 53.348 56.759V50.5273C53.348 50.0017 52.9207 49.5752 52.3941 49.5752C51.8669 49.5752 51.4402 50.0017 51.4402 50.5273V56.4416H50.049V44.3389L51.4402 41.9397V46.0205C51.4402 46.5462 51.8669 46.9727 52.3941 46.9727C52.9207 46.9727 53.348 46.5462 53.348 46.0205V38.6488L54.534 36.6027H54.5345L58.8883 29.0926C58.8888 29.0926 58.8888 29.0926 58.8888 29.0921L60.8812 25.6559C61.0938 25.289 61.15 24.8615 61.0397 24.4514C61.0138 24.3552 60.9791 24.2629 60.9368 24.1751L61.7864 22.7102C61.9986 22.3433 62.0552 21.9158 61.9449 21.5057ZM56.0792 23.2597L56.7479 23.6435L55.3925 25.9818L54.7243 25.5974L56.0792 23.2597ZM44.8421 63.0957H5.90788V8.55843H44.8421V14.0918C44.8421 14.6175 45.2689 15.0439 45.796 15.0439C46.3227 15.0439 46.7499 14.6175 46.7499 14.0918V8.24104C46.7499 7.36576 46.0365 6.65413 45.16 6.65413H9.20692V5.23136H15.1929C15.7201 5.23136 16.1468 4.80488 16.1468 4.27921C16.1468 3.75355 15.7201 3.32706 15.1929 3.32706H12.506V1.9043H51.4402V27.4596L50.9185 28.3591L50.0485 29.8593V4.91398C50.0485 4.03919 49.3355 3.32706 48.4586 3.32706H19.7718C19.2447 3.32706 18.8179 3.75355 18.8179 4.27921C18.8179 4.80488 19.2447 5.23136 19.7718 5.23136H48.1406V33.1496L46.7494 35.5494V18.5352C46.7494 18.0095 46.3227 17.583 45.7955 17.583C45.2689 17.583 44.8416 18.0095 44.8416 18.5352V38.8402L40.216 46.8184H11.2186C10.6915 46.8184 10.2647 47.2449 10.2647 47.7706C10.2647 48.2967 10.6915 48.7227 11.2186 48.7227H39.112L38.4139 49.9268C38.1496 50.3825 37.9722 51.0957 37.9911 51.6223L38.1078 54.7902H27.7859C27.2588 54.7902 26.832 55.2167 26.832 55.7423C26.832 56.268 27.2588 56.6945 27.7859 56.6945H39.4294C39.6625 56.6945 39.893 56.6355 40.1141 56.5184L43.4479 54.7609C43.9145 54.515 44.4446 54.0057 44.7084 53.5499L44.8421 53.3198V63.0957ZM40.4291 50.2526L43.4191 51.9719L43.0569 52.5963C42.9724 52.7421 42.7056 52.9985 42.5566 53.0773L40.0033 54.4232L39.8975 51.5524C39.8915 51.3843 39.9809 51.0262 40.0649 50.8804L40.4291 50.2526ZM48.1406 59.7686H46.7494V50.029L48.1406 47.6297V59.7686ZM44.375 50.3235L41.385 48.6047L49.4145 34.7554L52.4045 36.4747L44.375 50.3235ZM53.36 34.8263L50.3699 33.107L53.7684 27.2458L54.4366 27.6302L52.7687 30.5069C52.5049 30.9622 52.6604 31.5444 53.1165 31.8077C53.267 31.895 53.4315 31.9361 53.5935 31.9361C53.9229 31.9361 54.2433 31.7656 54.4197 31.4606L56.0901 28.5803L56.7584 28.9647L53.36 34.8263ZM57.7143 27.3167L57.0455 26.9324L58.4014 24.5942L59.0697 24.9785L57.7143 27.3167ZM59.4229 22.9845L57.6368 21.9574L58.1883 21.0058L59.9744 22.0328L59.4229 22.9845Z" fill="url(#paint8_linear_32_969)"/>
<defs>
<linearGradient id="paint0_linear_32_969" x1="10" y1="25.2752" x2="41" y2="25.2752" gradientUnits="userSpaceOnUse">
<stop stop-color="#C88C44"/>
<stop offset="1" stop-color="#E9C883"/>
</linearGradient>
<linearGradient id="paint1_linear_32_969" x1="10" y1="56.7385" x2="19" y2="56.7385" gradientUnits="userSpaceOnUse">
<stop stop-color="#C88C44"/>
<stop offset="1" stop-color="#E9C883"/>
</linearGradient>
<linearGradient id="paint2_linear_32_969" x1="16" y1="15.2752" x2="34" y2="15.2752" gradientUnits="userSpaceOnUse">
<stop stop-color="#C88C44"/>
<stop offset="1" stop-color="#E9C883"/>
</linearGradient>
<linearGradient id="paint3_linear_32_969" x1="10" y1="21.2752" x2="41" y2="21.2752" gradientUnits="userSpaceOnUse">
<stop stop-color="#C88C44"/>
<stop offset="1" stop-color="#E9C883"/>
</linearGradient>
<linearGradient id="paint4_linear_32_969" x1="10" y1="30.2752" x2="41" y2="30.2752" gradientUnits="userSpaceOnUse">
<stop stop-color="#C88C44"/>
<stop offset="1" stop-color="#E9C883"/>
</linearGradient>
<linearGradient id="paint5_linear_32_969" x1="10" y1="34.2752" x2="41" y2="34.2752" gradientUnits="userSpaceOnUse">
<stop stop-color="#C88C44"/>
<stop offset="1" stop-color="#E9C883"/>
</linearGradient>
<linearGradient id="paint6_linear_32_969" x1="10" y1="39.2752" x2="41" y2="39.2752" gradientUnits="userSpaceOnUse">
<stop stop-color="#C88C44"/>
<stop offset="1" stop-color="#E9C883"/>
</linearGradient>
<linearGradient id="paint7_linear_32_969" x1="10" y1="43.2752" x2="41" y2="43.2752" gradientUnits="userSpaceOnUse">
<stop stop-color="#C88C44"/>
<stop offset="1" stop-color="#E9C883"/>
</linearGradient>
<linearGradient id="paint8_linear_32_969" x1="4" y1="41.4447" x2="62" y2="41.4447" gradientUnits="userSpaceOnUse">
<stop stop-color="#C88C44"/>
<stop offset="1" stop-color="#E9C883"/>
</linearGradient>
</defs>
</svg>
