<svg width="65" height="65" viewBox="0 0 65 65" fill="none" xmlns="http://www.w3.org/2000/svg">
<path d="M63.3693 24.0929L60.1123 21.2388C59.7083 20.8845 59.0973 20.9297 58.7481 21.3396C58.3988 21.7494 58.4431 22.3688 58.8475 22.723L62.1043 25.5771C63.2653 26.5945 63.3935 28.3799 62.3903 29.5571L41.2355 54.3777C40.8862 54.7875 40.9306 55.4069 41.3348 55.7612C41.5177 55.9216 41.7429 56 41.9669 56C42.2383 56 42.5079 55.8849 42.6992 55.6606L63.8539 30.8397C65.5548 28.8442 65.3373 25.8174 63.3693 24.0929Z" fill="url(#paint0_linear_32_1058)"/>
<path d="M57.6614 18.2868L42.421 5.15799C41.4566 4.32719 40.2252 3.92097 38.9541 4.01274C37.6828 4.1049 36.5238 4.68524 35.6903 5.64643L34.2382 7.32129C33.8849 7.72892 33.9298 8.34482 34.3387 8.69699C34.7478 9.04943 35.3655 9.00431 35.7188 8.59681L37.1709 6.92195C37.6626 6.355 38.3464 6.01263 39.0963 5.9582C39.8463 5.90327 40.5725 6.14366 41.1414 6.63376L56.3818 19.7625C56.5668 19.922 56.7946 20 57.0211 20C57.2957 20 57.5684 19.8855 57.7619 19.6625C58.1151 19.2549 58.0702 18.639 57.6614 18.2868Z" fill="url(#paint1_linear_32_1058)"/>
<path d="M48.7505 15.0265L22.4295 6.24635C19.9388 5.41553 17.2334 6.75481 16.3982 9.23152L16.051 10.261C15.8794 10.7696 16.155 11.3204 16.6665 11.491C17.178 11.6616 17.7316 11.3876 17.9032 10.8788L18.2505 9.84929C18.7432 8.38813 20.339 7.59807 21.8083 8.08826L48.1294 16.8683C49.5986 17.3585 50.3929 18.9457 49.9001 20.4068L37.6538 56.7194C37.4822 57.228 37.7578 57.7786 38.2693 57.9493C38.3724 57.9836 38.477 58 38.5801 58C38.9883 58 39.369 57.7434 39.5061 57.3373L51.7524 21.0248C52.5875 18.5482 51.241 15.8572 48.7505 15.0265Z" fill="url(#paint2_linear_32_1058)"/>
<path d="M32.2731 13H4.7268C2.12046 13 0 15.1352 0 17.7599V56.24C0 58.8646 2.12046 61 4.7268 61H32.2732C34.8795 61 37 58.8646 37 56.24V17.7599C36.9999 15.1352 34.8795 13 32.2731 13ZM35.0614 56.24C35.0614 57.7883 33.8105 59.0479 32.2731 59.0479H4.7268C3.18924 59.0479 1.93845 57.7882 1.93845 56.24V17.7599C1.93845 16.2115 3.18937 14.9519 4.7268 14.9519H32.2732C33.8108 14.9519 35.0615 16.2117 35.0615 17.7599V56.24H35.0614Z" fill="url(#paint3_linear_32_1058)"/>
<path d="M33.0146 40H3.98532C3.44115 40 3 40.4477 3 41C3 41.5523 3.44115 42 3.98532 42H33.0147C33.5588 42 34 41.5523 34 41C33.9999 40.4477 33.5587 40 33.0146 40Z" fill="url(#paint4_linear_32_1058)"/>
<path d="M28.0266 45H15.9734C15.4358 45 15 45.4477 15 46C15 46.5523 15.4358 47 15.9734 47H28.0266C28.5642 47 29 46.5523 29 46C29 45.4477 28.5642 45 28.0266 45Z" fill="url(#paint5_linear_32_1058)"/>
<path d="M13.0657 45H8.93425C8.41829 45 8 45.4477 8 46C8 46.5523 8.41829 47 8.93425 47H13.0657C13.5817 47 14 46.5523 14 46C14 45.4477 13.5817 45 13.0657 45Z" fill="url(#paint6_linear_32_1058)"/>
<path d="M29.0063 49H8.99374C8.44492 49 8 49.4477 8 50C8 50.5523 8.44492 51 8.99374 51H29.0063C29.5551 51 30 50.5523 30 50C30 49.4476 29.5551 49 29.0063 49Z" fill="url(#paint7_linear_32_1058)"/>
<path d="M29.0063 53H8.99374C8.44492 53 8 53.4477 8 54C8 54.5523 8.44492 55 8.99374 55H29.0063C29.5551 55 30 54.5523 30 54C30 53.4477 29.5551 53 29.0063 53Z" fill="url(#paint8_linear_32_1058)"/>
<path d="M28.9534 23.5702C28.8416 23.227 28.544 22.9769 28.1858 22.9251L22.0824 22.0411L19.353 16.5285C19.1926 16.2049 18.8621 16 18.5001 16C18.1381 16 17.8075 16.2049 17.6471 16.5285L14.9176 22.0411L8.81422 22.9251C8.456 22.9769 8.15831 23.227 8.04657 23.5702C7.9347 23.9134 8.02805 24.29 8.28721 24.5419L12.7037 28.8328L11.6611 34.8918C11.6 35.2474 11.7466 35.6068 12.0395 35.8189C12.2052 35.9388 12.4014 35.9999 12.5986 35.9999C12.7498 35.9999 12.9019 35.9639 13.0411 35.8911L18.5001 33.0304L23.9591 35.8911C24.2795 36.059 24.6678 36.031 24.9606 35.8189C25.2536 35.6068 25.4002 35.2474 25.339 34.8918L24.2964 28.8328L28.7128 24.5419C28.972 24.29 29.0653 23.9134 28.9534 23.5702ZM22.6107 27.823C22.3865 28.0408 22.2842 28.3547 22.3371 28.6622L23.1384 33.3191L18.9426 31.1203C18.6654 30.9752 18.3344 30.9752 18.0574 31.1203L13.8615 33.3191L14.6629 28.6622C14.7157 28.3547 14.6135 28.0408 14.3893 27.823L10.9949 24.525L15.686 23.8455C15.9957 23.8006 16.2635 23.6067 16.4021 23.3269L18.4999 19.0897L20.5978 23.3269C20.7363 23.6066 21.0041 23.8006 21.3139 23.8455L26.0051 24.525L22.6107 27.823Z" fill="url(#paint9_linear_32_1058)"/>
<defs>
<linearGradient id="paint0_linear_32_1058" x1="41" y1="43.3164" x2="65" y2="43.3164" gradientUnits="userSpaceOnUse">
<stop stop-color="#C88C44"/>
<stop offset="1" stop-color="#E9C883"/>
</linearGradient>
<linearGradient id="paint1_linear_32_1058" x1="34" y1="14.2018" x2="58" y2="14.2018" gradientUnits="userSpaceOnUse">
<stop stop-color="#C88C44"/>
<stop offset="1" stop-color="#E9C883"/>
</linearGradient>
<linearGradient id="paint2_linear_32_1058" x1="16" y1="39.1557" x2="52" y2="39.1557" gradientUnits="userSpaceOnUse">
<stop stop-color="#C88C44"/>
<stop offset="1" stop-color="#E9C883"/>
</linearGradient>
<linearGradient id="paint3_linear_32_1058" x1="0" y1="43.6053" x2="37" y2="43.6053" gradientUnits="userSpaceOnUse">
<stop stop-color="#C88C44"/>
<stop offset="1" stop-color="#E9C883"/>
</linearGradient>
<linearGradient id="paint4_linear_32_1058" x1="3" y1="41.2752" x2="34" y2="41.2752" gradientUnits="userSpaceOnUse">
<stop stop-color="#C88C44"/>
<stop offset="1" stop-color="#E9C883"/>
</linearGradient>
<linearGradient id="paint5_linear_32_1058" x1="15" y1="46.2752" x2="29" y2="46.2752" gradientUnits="userSpaceOnUse">
<stop stop-color="#C88C44"/>
<stop offset="1" stop-color="#E9C883"/>
</linearGradient>
<linearGradient id="paint6_linear_32_1058" x1="8" y1="46.2752" x2="14" y2="46.2752" gradientUnits="userSpaceOnUse">
<stop stop-color="#C88C44"/>
<stop offset="1" stop-color="#E9C883"/>
</linearGradient>
<linearGradient id="paint7_linear_32_1058" x1="8" y1="50.2752" x2="30" y2="50.2752" gradientUnits="userSpaceOnUse">
<stop stop-color="#C88C44"/>
<stop offset="1" stop-color="#E9C883"/>
</linearGradient>
<linearGradient id="paint8_linear_32_1058" x1="8" y1="54.2752" x2="30" y2="54.2752" gradientUnits="userSpaceOnUse">
<stop stop-color="#C88C44"/>
<stop offset="1" stop-color="#E9C883"/>
</linearGradient>
<linearGradient id="paint9_linear_32_1058" x1="8" y1="28.7522" x2="29" y2="28.7522" gradientUnits="userSpaceOnUse">
<stop stop-color="#C88C44"/>
<stop offset="1" stop-color="#E9C883"/>
</linearGradient>
</defs>
</svg>
