<svg width="65" height="65" viewBox="0 0 65 65" fill="none" xmlns="http://www.w3.org/2000/svg">
<path d="M63.9167 6.5H56.3333V3.25C56.3333 1.4552 54.8781 0 53.0833 0H3.25C1.4552 0 0 1.4552 0 3.25V14.0833C0 15.8781 1.4552 17.3333 3.25 17.3333H4.33333V24.9167C4.33333 26.7115 5.78853 28.1667 7.58333 28.1667C9.37813 28.1667 10.8333 26.7115 10.8333 24.9167C10.8333 24.3184 11.3184 23.8333 11.9167 23.8333C12.5149 23.8333 13 24.3184 13 24.9167V29.25C13 31.0448 14.4552 32.5 16.25 32.5C18.0448 32.5 19.5 31.0448 19.5 29.25V22.75C19.5 22.1517 19.9851 21.6667 20.5833 21.6667C22.3781 21.6667 23.8333 20.2115 23.8333 18.4167V17.3333H53.0833C54.8781 17.3333 56.3333 15.8781 56.3333 14.0833V13H58.5V21.0277L30.0313 29.2934C29.5684 29.4277 29.25 29.8514 29.25 30.3333V42.25H26C25.6816 42.25 25.379 42.3902 25.1732 42.6335C24.9674 42.8768 24.8791 43.1979 24.932 43.5121L25.9847 49.8333L24.932 56.1545C24.922 56.2138 24.9167 56.2736 24.9167 56.3333V63.9167C24.9167 64.5149 25.4017 65 26 65H39C39.5983 65 40.0833 64.5149 40.0833 63.9167V56.3333C40.0833 56.2736 40.078 56.2138 40.068 56.1545L39.0153 49.8333L40.068 43.5121C40.1209 43.1979 40.0326 42.8768 39.8268 42.6335C39.621 42.3902 39.3184 42.25 39 42.25H35.75V34.2223L64.2187 25.9566C64.6816 25.8223 65 25.3986 65 24.9167V7.58333C65 6.98507 64.5149 6.5 63.9167 6.5ZM21.6667 18.4167C21.6667 19.0149 21.1816 19.5 20.5833 19.5C18.7885 19.5 17.3333 20.9552 17.3333 22.75V29.25C17.3333 29.8483 16.8483 30.3333 16.25 30.3333C15.6517 30.3333 15.1667 29.8483 15.1667 29.25V24.9167C15.1667 23.1219 13.7115 21.6667 11.9167 21.6667C10.1219 21.6667 8.66667 23.1219 8.66667 24.9167C8.66667 25.5149 8.1816 26 7.58333 26C6.98507 26 6.5 25.5149 6.5 24.9167V17.3333H21.6667V18.4167ZM54.1667 7.58333V14.0833C54.1667 14.6816 53.6816 15.1667 53.0833 15.1667H3.25C2.65173 15.1667 2.16667 14.6816 2.16667 14.0833V3.25C2.16667 2.65173 2.65173 2.16667 3.25 2.16667H53.0833C53.6816 2.16667 54.1667 2.65173 54.1667 3.25V7.58333ZM37.7204 44.4167L36.854 49.6545C36.8333 49.773 36.8333 49.8936 36.854 50.0121L37.9167 56.4233V62.8333H27.0833V56.4233L28.1513 50.0121C28.172 49.8936 28.172 49.773 28.1513 49.6545L27.2796 44.4167H37.7204ZM62.8333 24.1031L34.3646 32.3678C33.9012 32.5021 33.5828 32.9269 33.5833 33.4088V42.25H31.4167V31.1469L59.8854 22.8822C60.3488 22.7479 60.6672 22.3231 60.6667 21.8412V11.9167C60.6667 11.3184 60.1816 10.8333 59.5833 10.8333H56.3333V8.66667H62.8333V24.1031Z" fill="url(#paint0_linear_32_1030)"/>
<defs>
<linearGradient id="paint0_linear_32_1030" x1="0" y1="41.4447" x2="65" y2="41.4447" gradientUnits="userSpaceOnUse">
<stop stop-color="#C88C44"/>
<stop offset="1" stop-color="#E9C883"/>
</linearGradient>
</defs>
</svg>
