<svg width="65" height="65" viewBox="0 0 65 65" fill="none" xmlns="http://www.w3.org/2000/svg">
<path d="M44.0652 40.5999C43.8636 40.0329 43.2465 39.7389 42.687 39.9432C42.1274 40.1476 41.8373 40.7729 42.0389 41.3398C42.0439 41.3537 42.0492 41.3675 42.0547 41.3813C43.0369 43.9785 43.1079 45.9647 42.2485 46.8377C41.2061 47.8919 38.6096 47.5623 35.3012 45.9581C30.872 43.6277 26.8459 40.5833 23.3805 36.9441C14.9448 28.395 11.4641 20.0063 13.6169 17.8248C14.3038 17.275 15.1968 17.0639 16.0529 17.2486C16.6461 17.2928 17.1623 16.8413 17.2059 16.2402C17.2481 15.6593 16.8325 15.1472 16.2619 15.0769C14.7645 14.8085 13.2282 15.2508 12.0941 16.2773C8.14816 20.2747 14.1801 30.702 21.8577 38.4828C25.4952 42.2971 29.7219 45.4852 34.3718 47.9214C35.2138 48.3299 36.0816 48.6817 36.9694 48.9745L29.3177 51.9144C19.1002 47.9781 11.7448 38.7993 10.0403 27.8581C9.94814 27.2626 9.39701 26.8556 8.8094 26.949C8.22179 27.0425 7.82009 27.6009 7.91231 28.1964C8.08139 29.2876 8.30755 30.3789 8.58432 31.4462C11.0643 40.9676 17.5961 48.8773 26.4078 53.0297L13.814 57.8586C13.7562 57.761 13.6835 57.6734 13.5986 57.5989C10.3979 54.995 8.38966 51.1761 8.04154 47.032L7.54184 40.9C7.50253 40.306 6.99529 39.8566 6.40889 39.8965C6.39772 39.8973 6.38654 39.8981 6.37551 39.8993C5.78265 39.9471 5.34016 40.4729 5.38727 41.0737C5.38741 41.0761 5.38768 41.0787 5.38795 41.0812L5.89627 47.2109C6.27481 51.6406 8.31401 55.7548 11.5944 58.7076L2.61051 62.1539L4.22592 55.436C4.36687 54.8501 4.01255 54.2594 3.43437 54.1166C2.85618 53.9738 2.27329 54.3328 2.13234 54.9187L0.0312225 63.649C-0.110396 64.2343 0.243111 64.8253 0.820892 64.9686C1.03278 65.0213 1.25531 65.0074 1.45925 64.9291L41.3062 49.6511C41.3696 49.6197 41.4295 49.5816 41.485 49.5376C42.3474 49.4033 43.1469 48.9993 43.7713 48.3819C44.8385 47.3004 45.7571 45.0709 44.0652 40.5999Z" fill="url(#paint0_linear_32_1104)"/>
<path d="M54.2895 38.0761C48.3863 36.0661 42.0059 35.5026 35.7878 36.4423L31.8861 37.0382C31.2938 37.1418 30.906 37.6623 31.0198 38.201C31.1299 38.7215 31.6697 39.0717 32.2464 38.9968L36.147 38.4059C41.9868 37.5228 47.9793 38.0524 53.5229 39.9414C53.6459 39.981 53.7757 40.0008 53.9062 40C54.5093 40.0008 54.999 39.557 55 39.0084C55.0008 38.5931 54.7174 38.2213 54.2895 38.0761Z" fill="url(#paint1_linear_32_1104)"/>
<path d="M58.8941 21.6179C58.636 21.0776 57.9874 20.8482 57.4453 21.1055L34.62 31.9381C34.078 32.1952 33.8478 32.8415 34.1058 33.3818C34.1058 33.3819 34.1059 33.3821 34.1059 33.3821C34.3639 33.9222 35.0124 34.1517 35.5545 33.8946C35.5546 33.8946 35.5546 33.8945 35.5548 33.8945L58.38 23.0619C58.9221 22.8046 59.1523 22.1582 58.8941 21.6179Z" fill="url(#paint2_linear_32_1104)"/>
<path d="M26.2382 6.87023C26.1224 6.28228 25.5666 5.90248 24.9967 6.02198C24.4268 6.14147 24.0587 6.71489 24.1745 7.30285C24.177 7.31588 24.1799 7.32878 24.183 7.34168C25.5156 13.4845 24.9664 19.9029 22.611 25.7098L21.0801 29.4998C20.8589 30.0521 21.1114 30.685 21.6455 30.9164C21.7734 30.9719 21.911 31.0003 22.0498 31C22.4748 31 22.858 30.7366 23.0216 30.3319L24.5536 26.5462C27.0772 20.326 27.6659 13.4506 26.2382 6.87023Z" fill="url(#paint3_linear_32_1104)"/>
<path d="M59 39C57.3431 39 56 40.3431 56 42C56 43.6569 57.3431 45 59 45C60.6569 45 62 43.6569 62 42C62 40.3431 60.6569 39 59 39ZM59 43C58.4478 43 58 42.5522 58 42C58 41.4478 58.4478 41 59 41C59.5522 41 60 41.4478 60 42C60 42.5522 59.5522 43 59 43Z" fill="url(#paint4_linear_32_1104)"/>
<path d="M33 9C31.3431 9 30 10.3431 30 12C30 13.6569 31.3431 15 33 15C34.6569 15 36 13.6569 36 12C36 10.3431 34.6569 9 33 9ZM33 13C32.4477 13 32 12.5522 32 12C32 11.4478 32.4477 11 33 11C33.5522 11 34 11.4478 34 12C34 12.5522 33.5522 13 33 13Z" fill="url(#paint5_linear_32_1104)"/>
<path d="M24 4C25.1046 4 26 3.10457 26 2C26 0.89543 25.1046 0 24 0C22.8954 0 22 0.89543 22 2C22 3.10457 22.8954 4 24 4Z" fill="url(#paint6_linear_32_1104)"/>
<path d="M54 5C53.4477 5 53 5.44775 53 6V7C53 7.55225 53.4477 8 54 8C54.5523 8 55 7.55225 55 7V6C55 5.44775 54.5523 5 54 5Z" fill="url(#paint7_linear_32_1104)"/>
<path d="M54 0C53.4477 0 53 0.44775 53 1V2C53 2.55225 53.4477 3 54 3C54.5523 3 55 2.55225 55 2V1C55 0.44775 54.5523 0 54 0Z" fill="url(#paint8_linear_32_1104)"/>
<path d="M57 3H56C55.4477 3 55 3.44775 55 4C55 4.55225 55.4477 5 56 5H57C57.5522 5 58 4.55225 58 4C58 3.44775 57.5522 3 57 3Z" fill="url(#paint9_linear_32_1104)"/>
<path d="M52 3H51C50.4477 3 50 3.44775 50 4C50 4.55225 50.4477 5 51 5H52C52.5522 5 53 4.55225 53 4C53 3.44775 52.5522 3 52 3Z" fill="url(#paint10_linear_32_1104)"/>
<path d="M46.8606 12H41.1394C40.5102 12 40 12.5102 40 13.1394V18.8606C40 19.4898 40.5102 20 41.1394 20H46.8606C47.4898 20 48 19.4898 48 18.8606V13.1394C48 12.5102 47.4898 12 46.8606 12ZM45.7211 17.7211H42.2789V14.2789H45.7211V17.7211Z" fill="url(#paint11_linear_32_1104)"/>
<path d="M38.7069 21.3455C38.3086 20.9175 37.6459 20.8826 37.2055 21.2663L26.3587 31.0965C25.9138 31.5001 25.8778 32.1905 26.2785 32.6388C26.6793 33.0868 27.3649 33.123 27.81 32.7196L38.6568 22.8894C39.0941 22.477 39.1165 21.7858 38.7069 21.3455Z" fill="url(#paint12_linear_32_1104)"/>
<path d="M58 25C57.4477 25 57 25.4477 57 26V27C57 27.5522 57.4477 28 58 28C58.5523 28 59 27.5522 59 27V26C59 25.4477 58.5523 25 58 25Z" fill="url(#paint13_linear_32_1104)"/>
<path d="M62.686 25.1047L61.8953 24.314C61.451 23.8848 60.7431 23.8971 60.3139 24.3414C59.8954 24.7748 59.8954 25.4618 60.3139 25.8953L61.1046 26.686C61.5489 27.1152 62.2568 27.1029 62.686 26.6586C63.1047 26.2251 63.1047 25.538 62.686 25.1047Z" fill="url(#paint14_linear_32_1104)"/>
<path d="M64 21H63C62.4477 21 62 21.4477 62 22C62 22.5523 62.4477 23 63 23H64C64.5522 23 65 22.5523 65 22C65 21.4477 64.5522 21 64 21Z" fill="url(#paint15_linear_32_1104)"/>
<path d="M62.6601 17.3125C62.2287 16.8958 61.5447 16.8958 61.1131 17.3125L60.326 18.0996C59.8912 18.5345 59.8914 19.2393 60.3263 19.6741C60.535 19.8827 60.8181 20 61.1131 20C61.4084 20 61.6915 19.8825 61.9003 19.6738L62.6874 18.8867C63.1146 18.4444 63.1024 17.7396 62.6601 17.3125Z" fill="url(#paint16_linear_32_1104)"/>
<path d="M58 15C57.4477 15 57 15.4477 57 16V17C57 17.5522 57.4477 18 58 18C58.5523 18 59 17.5522 59 17V16C59 15.4477 58.5523 15 58 15Z" fill="url(#paint17_linear_32_1104)"/>
<path d="M56.686 18.1046L55.8953 17.314C55.451 16.8849 54.7431 16.8971 54.3139 17.3414C53.8954 17.7747 53.8954 18.4618 54.3139 18.8953L55.1046 19.686C55.5489 20.1152 56.2568 20.1029 56.686 19.6586C57.1047 19.2251 57.1047 18.538 56.686 18.1046Z" fill="url(#paint18_linear_32_1104)"/>
<path d="M12.9464 4.47633C12.8189 4.09789 12.48 3.82223 12.0723 3.76495L8.89317 3.31825L7.47529 0.536566C7.15927 0.0183346 6.46807 -0.154409 5.93149 0.150802C5.76657 0.244562 5.62915 0.377291 5.53207 0.536566L4.10769 3.31825L0.928561 3.76495C0.336469 3.84747 -0.074191 4.37799 0.0112447 4.94984C0.0452294 5.1775 0.155984 5.38791 0.326314 5.54862L2.6259 7.71413L2.08431 10.772C1.98033 11.341 2.37352 11.8836 2.96263 11.9841C3.19985 12.0245 3.44411 11.9875 3.65709 11.8788L6.50043 10.431L9.34377 11.8746C9.87331 12.1435 10.5282 11.9469 10.8066 11.4355C10.9175 11.2319 10.9557 10.9987 10.9155 10.772L10.3739 7.71413L12.6745 5.54862C12.969 5.27022 13.0744 4.85464 12.9464 4.47633ZM8.45015 6.59999C8.19506 6.83995 8.07848 7.1857 8.13819 7.52478L8.40682 9.03645L7.00411 8.32194C6.68877 8.16201 6.31209 8.16201 5.99675 8.32194L4.58862 9.0354L4.85725 7.52373C4.91804 7.18596 4.80349 6.84073 4.55071 6.59999L3.41229 5.52979L4.98398 5.30905C5.33682 5.25962 5.64187 5.04556 5.79961 4.73682L6.50043 3.36324L7.20233 4.73682C7.35993 5.0453 7.66444 5.25923 8.01688 5.30905L9.58749 5.52979L8.45015 6.59999Z" fill="url(#paint19_linear_32_1104)"/>
<path d="M61.4279 54.5314H61.4236L60.9822 53.8778C58.5068 50.2242 54.6144 47.7398 50.223 47.0107C49.6372 46.9282 49.0944 47.3301 49.0109 47.9084C48.9301 48.4671 49.3079 48.9899 49.8694 49.0963C53.0368 49.627 55.9234 51.2153 58.0462 53.5954C56.2615 53.9123 54.7005 54.9703 53.7601 56.5007C52.6061 58.5407 53.3461 61.1177 55.4129 62.2567C57.4798 63.3958 60.0907 62.6654 61.2447 60.6254C61.6855 59.7855 61.9235 58.8562 61.9401 57.9105C63.0802 59.5449 63.1714 61.6793 62.1748 63.4027C61.8729 63.905 62.0407 64.5539 62.5497 64.8518C63.0587 65.1498 63.716 64.9842 64.0179 64.4818C64.0276 64.4657 64.0368 64.4494 64.0457 64.4328C66.0076 60.9738 64.852 56.6031 61.4279 54.5314ZM59.376 59.5931C58.804 60.616 57.5004 60.9875 56.4642 60.423C55.4281 59.8585 55.0516 58.5717 55.6235 57.549C55.6267 57.5434 55.6299 57.5375 55.6331 57.5319C56.2655 56.5099 57.332 55.8249 58.5348 55.6683C58.7211 55.6633 58.9056 55.7056 59.0706 55.791C59.9749 56.2892 60.0232 58.4488 59.376 59.5931Z" fill="url(#paint20_linear_32_1104)"/>
<defs>
<linearGradient id="paint0_linear_32_1104" x1="0" y1="46.8805" x2="45" y2="46.8805" gradientUnits="userSpaceOnUse">
<stop stop-color="#C88C44"/>
<stop offset="1" stop-color="#E9C883"/>
</linearGradient>
<linearGradient id="paint1_linear_32_1104" x1="31" y1="38.5504" x2="55" y2="38.5504" gradientUnits="userSpaceOnUse">
<stop stop-color="#C88C44"/>
<stop offset="1" stop-color="#E9C883"/>
</linearGradient>
<linearGradient id="paint2_linear_32_1104" x1="34" y1="29.2889" x2="59" y2="29.2889" gradientUnits="userSpaceOnUse">
<stop stop-color="#C88C44"/>
<stop offset="1" stop-color="#E9C883"/>
</linearGradient>
<linearGradient id="paint3_linear_32_1104" x1="21" y1="21.9403" x2="27" y2="21.9403" gradientUnits="userSpaceOnUse">
<stop stop-color="#C88C44"/>
<stop offset="1" stop-color="#E9C883"/>
</linearGradient>
<linearGradient id="paint4_linear_32_1104" x1="56" y1="42.8257" x2="62" y2="42.8257" gradientUnits="userSpaceOnUse">
<stop stop-color="#C88C44"/>
<stop offset="1" stop-color="#E9C883"/>
</linearGradient>
<linearGradient id="paint5_linear_32_1104" x1="30" y1="12.8257" x2="36" y2="12.8257" gradientUnits="userSpaceOnUse">
<stop stop-color="#C88C44"/>
<stop offset="1" stop-color="#E9C883"/>
</linearGradient>
<linearGradient id="paint6_linear_32_1104" x1="22" y1="2.55044" x2="26" y2="2.55044" gradientUnits="userSpaceOnUse">
<stop stop-color="#C88C44"/>
<stop offset="1" stop-color="#E9C883"/>
</linearGradient>
<linearGradient id="paint7_linear_32_1104" x1="53" y1="6.91283" x2="55" y2="6.91283" gradientUnits="userSpaceOnUse">
<stop stop-color="#C88C44"/>
<stop offset="1" stop-color="#E9C883"/>
</linearGradient>
<linearGradient id="paint8_linear_32_1104" x1="53" y1="1.91283" x2="55" y2="1.91283" gradientUnits="userSpaceOnUse">
<stop stop-color="#C88C44"/>
<stop offset="1" stop-color="#E9C883"/>
</linearGradient>
<linearGradient id="paint9_linear_32_1104" x1="55" y1="4.27522" x2="58" y2="4.27522" gradientUnits="userSpaceOnUse">
<stop stop-color="#C88C44"/>
<stop offset="1" stop-color="#E9C883"/>
</linearGradient>
<linearGradient id="paint10_linear_32_1104" x1="50" y1="4.27522" x2="53" y2="4.27522" gradientUnits="userSpaceOnUse">
<stop stop-color="#C88C44"/>
<stop offset="1" stop-color="#E9C883"/>
</linearGradient>
<linearGradient id="paint11_linear_32_1104" x1="40" y1="17.1009" x2="48" y2="17.1009" gradientUnits="userSpaceOnUse">
<stop stop-color="#C88C44"/>
<stop offset="1" stop-color="#E9C883"/>
</linearGradient>
<linearGradient id="paint12_linear_32_1104" x1="26" y1="28.6513" x2="39" y2="28.6513" gradientUnits="userSpaceOnUse">
<stop stop-color="#C88C44"/>
<stop offset="1" stop-color="#E9C883"/>
</linearGradient>
<linearGradient id="paint13_linear_32_1104" x1="57" y1="26.9128" x2="59" y2="26.9128" gradientUnits="userSpaceOnUse">
<stop stop-color="#C88C44"/>
<stop offset="1" stop-color="#E9C883"/>
</linearGradient>
<linearGradient id="paint14_linear_32_1104" x1="60" y1="25.9128" x2="63" y2="25.9128" gradientUnits="userSpaceOnUse">
<stop stop-color="#C88C44"/>
<stop offset="1" stop-color="#E9C883"/>
</linearGradient>
<linearGradient id="paint15_linear_32_1104" x1="62" y1="22.2752" x2="65" y2="22.2752" gradientUnits="userSpaceOnUse">
<stop stop-color="#C88C44"/>
<stop offset="1" stop-color="#E9C883"/>
</linearGradient>
<linearGradient id="paint16_linear_32_1104" x1="60" y1="18.9128" x2="63" y2="18.9128" gradientUnits="userSpaceOnUse">
<stop stop-color="#C88C44"/>
<stop offset="1" stop-color="#E9C883"/>
</linearGradient>
<linearGradient id="paint17_linear_32_1104" x1="57" y1="16.9128" x2="59" y2="16.9128" gradientUnits="userSpaceOnUse">
<stop stop-color="#C88C44"/>
<stop offset="1" stop-color="#E9C883"/>
</linearGradient>
<linearGradient id="paint18_linear_32_1104" x1="54" y1="18.9128" x2="57" y2="18.9128" gradientUnits="userSpaceOnUse">
<stop stop-color="#C88C44"/>
<stop offset="1" stop-color="#E9C883"/>
</linearGradient>
<linearGradient id="paint19_linear_32_1104" x1="0" y1="7.65132" x2="13" y2="7.65132" gradientUnits="userSpaceOnUse">
<stop stop-color="#C88C44"/>
<stop offset="1" stop-color="#E9C883"/>
</linearGradient>
<linearGradient id="paint20_linear_32_1104" x1="49" y1="58.477" x2="65" y2="58.477" gradientUnits="userSpaceOnUse">
<stop stop-color="#C88C44"/>
<stop offset="1" stop-color="#E9C883"/>
</linearGradient>
</defs>
</svg>
