<svg width="65" height="65" viewBox="0 0 65 65" fill="none" xmlns="http://www.w3.org/2000/svg">
<path d="M62.9839 23.3548H61.9677V2.01613C61.9677 1.74663 61.8607 1.48818 61.6701 1.29762C61.4796 1.10706 61.2211 1 60.9516 1H38.5968C38.3273 1 38.0688 1.10706 37.8783 1.29762C37.6877 1.48818 37.5807 1.74663 37.5807 2.01613V23.3548H31.7379L32.5508 22.2727C33.3941 21.148 33.9886 19.8568 34.2949 18.4848C34.6011 17.1128 34.6121 15.6914 34.3271 14.3149C34.042 12.9383 33.4676 11.6381 32.6417 10.5005C31.8159 9.36294 30.7576 8.41398 29.537 7.71661C29.1813 7.51339 28.8084 7.34573 28.4355 7.17908V2.01613C28.4355 1.74663 28.3284 1.48818 28.1379 1.29762C27.9473 1.10706 27.6889 1 27.4194 1H5.06454C4.79505 1 4.53659 1.10706 4.34603 1.29762C4.15547 1.48818 4.04841 1.74663 4.04841 2.01613V23.3548H2.01616C1.74666 23.3548 1.4882 23.4619 1.29764 23.6525C1.10708 23.843 1.00003 24.1015 1.00003 24.371V28.4355C1.00003 28.705 1.10708 28.9634 1.29764 29.154C1.4882 29.3446 1.74666 29.4516 2.01616 29.4516H3.03228V37.1671C3.01806 37.1813 3.00078 37.1915 2.98757 37.2057C2.35544 37.8339 1.85426 38.5813 1.51309 39.4045C1.17191 40.2278 0.997524 41.1106 1.00003 42.0018V52.8226C0.999527 54.681 1.7294 56.4652 3.03228 57.7904V62.9839C3.03228 63.2534 3.13934 63.5118 3.3299 63.7024C3.52046 63.8929 3.77892 64 4.04841 64H8.11293C8.38242 64 8.64088 63.8929 8.83144 63.7024C9.022 63.5118 9.12905 63.2534 9.12905 62.9839V59.9355H10.1452V62.9839C10.1452 63.2534 10.2522 63.5118 10.4428 63.7024C10.6334 63.8929 10.8918 64 11.1613 64H34.5323C34.8018 64 35.0602 63.8929 35.2508 63.7024C35.4413 63.5118 35.5484 63.2534 35.5484 62.9839V59.9355H36.5645C38.423 59.936 40.2071 59.2061 41.5324 57.9032H55.871V62.9839C55.871 63.2534 55.978 63.5118 56.1686 63.7024C56.3591 63.8929 56.6176 64 56.8871 64H60.9516C61.2211 64 61.4796 63.8929 61.6701 63.7024C61.8607 63.5118 61.9677 63.2534 61.9677 62.9839V29.4516H62.9839C63.2534 29.4516 63.5118 29.3446 63.7024 29.154C63.8929 28.9634 64 28.705 64 28.4355V24.371C64 24.1015 63.8929 23.843 63.7024 23.6525C63.5118 23.4619 63.2534 23.3548 62.9839 23.3548ZM47.7419 3.03226H51.8065V9.12903H47.7419V3.03226ZM39.6129 3.03226H45.7097V10.1452C45.7097 10.4147 45.8167 10.6731 46.0073 10.8637C46.1979 11.0542 46.4563 11.1613 46.7258 11.1613H52.8226C53.0921 11.1613 53.3505 11.0542 53.5411 10.8637C53.7317 10.6731 53.8387 10.4147 53.8387 10.1452V3.03226H59.9355V23.3548H39.6129V3.03226ZM41.6909 37.2057C40.6514 36.1702 39.306 35.4971 37.854 35.2862L26.4032 33.6503V31.5347C27.4371 31.0186 28.3641 30.3119 29.1356 29.4516H55.871V51.8064H43.6774V42.0018C43.6798 41.1108 43.5055 40.228 43.1645 39.4048C42.8235 38.5815 42.3227 37.8341 41.6909 37.2057ZM18.2742 33.6492L9.12905 34.957V29.4516H15.5418C16.3133 30.3119 17.2404 31.0186 18.2742 31.5347V33.6492ZM22.3387 30.4677C20.4529 30.4656 18.645 29.7155 17.3115 28.382C15.9781 27.0486 15.228 25.2406 15.2258 23.3548V21.3226C15.2258 20.5141 15.547 19.7387 16.1187 19.167C16.6904 18.5954 17.4657 18.2742 18.2742 18.2742H20.9842C23.4018 18.269 25.7535 17.4851 27.6907 16.0387L28.1855 15.6678L28.5981 16.2856C29.1552 17.1197 29.4522 18.1003 29.4516 19.1034V23.3548C29.4495 25.2406 28.6994 27.0486 27.3659 28.382C26.0325 29.7155 24.2245 30.4656 22.3387 30.4677ZM20.3065 32.2643C21.6431 32.5788 23.0344 32.5788 24.371 32.2643V34.9692C23.7419 35.291 23.0454 35.4588 22.3387 35.4588C21.6321 35.4588 20.9356 35.291 20.3065 34.9692V32.2643ZM32.5 16.3242C32.493 17.6698 32.1433 18.9913 31.4839 20.1642V19.1034C31.4851 17.6991 31.0692 16.3262 30.2889 15.1587L29.2809 13.6457C29.2042 13.5308 29.1049 13.4327 28.989 13.3574C28.8732 13.2822 28.7432 13.2313 28.607 13.208C28.4708 13.1847 28.3312 13.1894 28.1969 13.2219C28.0626 13.2544 27.9363 13.3139 27.8258 13.3968L26.4703 14.4129C24.8853 15.5964 22.9613 16.2377 20.9832 16.2419H18.2742C17.1008 16.2439 15.9641 16.6514 15.0567 17.3955C14.1493 18.1396 13.527 19.1744 13.2952 20.3247C12.7574 19.4289 12.4043 18.4345 12.2567 17.4001C12.1092 16.3657 12.1702 15.3122 12.4361 14.3017C12.702 13.2912 13.1674 12.3442 13.805 11.5164C14.4426 10.6886 15.2394 9.99672 16.1485 9.48163C17.7187 8.5855 19.4953 8.11378 21.3033 8.1129H23.3742C25.1821 8.11378 26.9587 8.5855 28.529 9.48163C29.734 10.1724 30.7355 11.1687 31.4327 12.3701C32.1299 13.5714 32.498 14.9353 32.5 16.3242ZM15.1405 7.71661C14.819 7.90513 14.5083 8.11139 14.2097 8.33442V3.03226H18.2742V6.46576C17.1777 6.73847 16.1234 7.15929 15.1405 7.71661ZM26.4032 6.46576C25.4132 6.21359 24.3958 6.08425 23.3742 6.08065H21.3033C20.969 6.08065 20.6387 6.11926 20.3065 6.14568V3.03226H26.4032V6.46576ZM6.08067 3.03226H12.1774V10.321C10.8679 12.0355 10.1543 14.131 10.1453 16.2884C10.1363 18.4459 10.8324 20.5472 12.1277 22.2727L12.9395 23.3548H6.08067V3.03226ZM3.03228 25.3871H13.4293C13.5905 26.0912 13.8355 26.7735 14.1589 27.4194H3.03228V25.3871ZM5.06454 29.4516H7.0968V35.2435L6.82346 35.2822C6.21593 35.3773 5.62419 35.5547 5.06454 35.8095V29.4516ZM5.06454 61.9677V59.2394C5.70704 59.5458 6.39223 59.7531 7.0968 59.8542V61.9677H5.06454ZM33.5161 61.9677H12.1774V59.9355H17.2581C18.3361 59.9355 19.3699 59.5073 20.1321 58.745C20.8944 57.9828 21.3226 56.9489 21.3226 55.871C21.3226 54.793 20.8944 53.7592 20.1321 52.9969C19.3699 52.2347 18.3361 51.8064 17.2581 51.8064H11.1613V43.6774H18.2742V48.7581C18.2742 49.0276 18.3813 49.286 18.5718 49.4766C18.7624 49.6671 19.0208 49.7742 19.2903 49.7742H25.3871C25.6566 49.7742 25.9151 49.6671 26.1056 49.4766C26.2962 49.286 26.4032 49.0276 26.4032 48.7581V43.6774H33.5161V51.8064H27.4194C26.3414 51.8064 25.3076 52.2347 24.5453 52.9969C23.7831 53.7592 23.3549 54.793 23.3549 55.871C23.3549 56.9489 23.7831 57.9828 24.5453 58.745C25.3076 59.5073 26.3414 59.9355 27.4194 59.9355H33.5161V61.9677ZM15.2258 53.8387H17.2581C17.7971 53.8387 18.314 54.0528 18.6951 54.4339C19.0762 54.8151 19.2903 55.332 19.2903 55.871C19.2903 56.41 19.0762 56.9269 18.6951 57.308C18.314 57.6891 17.7971 57.9032 17.2581 57.9032H15.2258V53.8387ZM20.3065 43.6774H24.371V47.7419H20.3065V43.6774ZM27.4194 57.9032C26.8804 57.9032 26.3635 57.6891 25.9823 57.308C25.6012 56.9269 25.3871 56.41 25.3871 55.871C25.3871 55.332 25.6012 54.8151 25.9823 54.4339C26.3635 54.0528 26.8804 53.8387 27.4194 53.8387H29.4516V57.9032H27.4194ZM36.5645 57.9032H31.4839V53.8387H34.5323C34.8018 53.8387 35.0602 53.7317 35.2508 53.5411C35.4413 53.3505 35.5484 53.0921 35.5484 52.8226V42.6613C35.5484 42.3918 35.4413 42.1333 35.2508 41.9428C35.0602 41.7522 34.8018 41.6452 34.5323 41.6452H10.1452C9.87569 41.6452 9.61723 41.7522 9.42667 41.9428C9.23611 42.1333 9.12905 42.3918 9.12905 42.6613V52.8226C9.12905 53.0921 9.23611 53.3505 9.42667 53.5411C9.61723 53.7317 9.87569 53.8387 10.1452 53.8387H13.1936V57.9032H8.11293C6.76595 57.9016 5.47461 57.3658 4.52215 56.4134C3.5697 55.4609 3.0339 54.1696 3.03228 52.8226V42.0018C3.03067 41.3776 3.15288 40.7593 3.39183 40.1827C3.63079 39.6061 3.98174 39.0826 4.42438 38.6425C5.15214 37.9174 6.09431 37.4463 7.11102 37.2992L18.2935 35.7008C18.3138 35.84 18.3627 35.9734 18.4372 36.0927C18.5117 36.212 18.6102 36.3145 18.7264 36.3938C19.7953 37.1093 21.0525 37.4912 22.3387 37.4912C23.6249 37.4912 24.8822 37.1093 25.9511 36.3938C26.0674 36.315 26.166 36.2127 26.2406 36.0935C26.3151 35.9744 26.364 35.841 26.3839 35.7018L37.5613 37.2992C38.5784 37.4461 39.521 37.9172 40.249 38.6425C40.6922 39.0823 41.0439 39.6057 41.2835 40.1823C41.5232 40.759 41.6461 41.3774 41.6452 42.0018V52.8226C41.6436 54.1696 41.1078 55.4609 40.1553 56.4134C39.2028 57.3658 37.9115 57.9016 36.5645 57.9032ZM42.9814 55.871C43.2877 55.2285 43.495 54.5433 43.5961 53.8387H55.871V55.871H42.9814ZM59.9355 61.9677H57.9032V29.4516H59.9355V61.9677ZM61.9677 27.4194H30.5186C30.842 26.7735 31.0869 26.0912 31.2481 25.3871H61.9677V27.4194Z" fill="url(#paint0_linear_32_1032)"/>
<path d="M58 19H52V21H58V19Z" fill="url(#paint1_linear_32_1032)"/>
<defs>
<linearGradient id="paint0_linear_32_1032" x1="1" y1="41.1694" x2="64" y2="41.1694" gradientUnits="userSpaceOnUse">
<stop stop-color="#C88C44"/>
<stop offset="1" stop-color="#E9C883"/>
</linearGradient>
<linearGradient id="paint1_linear_32_1032" x1="52" y1="20.2752" x2="58" y2="20.2752" gradientUnits="userSpaceOnUse">
<stop stop-color="#C88C44"/>
<stop offset="1" stop-color="#E9C883"/>
</linearGradient>
</defs>
</svg>
