<svg width="65" height="65" viewBox="0 0 65 65" fill="none" xmlns="http://www.w3.org/2000/svg">
<path d="M63.0335 30.3329H57.8246V2.60254C57.8246 1.16746 56.6571 0 55.2221 0H40.2721C39.7461 0 39.3199 0.426309 39.3199 0.952148C39.3199 1.47799 39.7461 1.9043 40.2721 1.9043H55.2221C55.607 1.9043 55.9203 2.21749 55.9203 2.60254V30.3329H54.016V5.77637C54.016 4.6913 53.1333 3.80859 52.0482 3.80859H12.9518C11.8667 3.80859 10.984 4.6913 10.984 5.77637V30.3329H9.07969V2.60254C9.07969 2.21749 9.39301 1.9043 9.77793 1.9043H35.8287C36.3547 1.9043 36.7809 1.47799 36.7809 0.952148C36.7809 0.426309 36.3547 0 35.8287 0H9.77793C8.34285 0 7.17539 1.16746 7.17539 2.60254V30.3329H1.9665C0.882197 30.3329 0 31.2151 0 32.2994V40.545C0 41.6287 0.882197 42.5103 1.9665 42.5103H2.14551V63.5223C2.14551 64.3273 2.80046 64.9822 3.60547 64.9822H6.3832C7.18821 64.9822 7.84316 64.3273 7.84316 63.5223V42.5103H20.9405V44.6686C20.9405 46.5937 22.5068 48.1598 24.4317 48.1598H29.6436V59.9219H27.4786C26.3936 59.9219 25.5108 60.8046 25.5108 61.8896V63.0322C25.5108 64.1173 26.3936 65 27.4786 65H37.5212C38.6063 65 39.489 64.1173 39.489 63.0322V61.8896C39.489 60.8046 38.6063 59.9219 37.5212 59.9219H35.3564V48.1598H40.5682C42.4932 48.1598 44.0595 46.5937 44.0595 44.6686V42.5103H57.2812V63.5223C57.2812 64.3273 57.9362 64.9822 58.7412 64.9822H61.5177C62.3227 64.9822 62.9776 64.3273 62.9776 63.5223V57.2381C62.9776 56.7122 62.5514 56.2859 62.0255 56.2859C61.4995 56.2859 61.0733 56.7122 61.0733 57.2381V63.0779H59.1855V42.5103H61.0733V52.7947C61.0733 53.3206 61.4995 53.7469 62.0255 53.7469C62.5514 53.7469 62.9776 53.3206 62.9776 52.7947V42.5103H63.0334C64.1177 42.5103 64.9999 41.6287 64.9999 40.545V32.2994C65 31.2151 64.1178 30.3329 63.0335 30.3329ZM12.8883 5.77637C12.8883 5.74133 12.9168 5.71289 12.9518 5.71289H52.0482C52.0831 5.71289 52.1117 5.74133 52.1117 5.77637V30.3329H12.8883V5.77637ZM40.5682 37.5795H24.4317C22.6644 37.5795 21.2005 38.9 20.9724 40.606H17.6503V32.2372H47.3497V40.606H44.0276C43.7995 38.9 42.3356 37.5795 40.5682 37.5795ZM1.9043 40.545V32.2994C1.9043 32.2651 1.93223 32.2372 1.9665 32.2372H15.746V40.606H1.9665C1.93223 40.606 1.9043 40.5787 1.9043 40.545ZM5.93887 63.0779H4.0498V42.5103H5.93887V63.0779ZM37.5849 61.8896V63.0322C37.5849 63.0673 37.5563 63.0957 37.5214 63.0957H27.4787C27.4438 63.0957 27.4153 63.0673 27.4153 63.0322V61.8896C27.4153 61.8546 27.4438 61.8262 27.4787 61.8262H37.5214C37.5563 61.8262 37.5849 61.8546 37.5849 61.8896ZM33.4521 59.9219H31.5478V48.1598H33.4521V59.9219ZM42.1552 44.6686C42.1552 45.5437 41.4433 46.2555 40.5682 46.2555H24.4317C23.5567 46.2555 22.8448 45.5437 22.8448 44.6686V41.0707C22.8448 40.1956 23.5567 39.4838 24.4317 39.4838H40.5681C41.4432 39.4838 42.155 40.1956 42.155 41.0707V44.6686H42.1552ZM63.0957 40.545C63.0957 40.5787 63.0678 40.606 63.0335 40.606H49.254V32.2372H63.0335C63.0679 32.2372 63.0957 32.2651 63.0957 32.2994V40.545Z" fill="url(#paint0_linear_32_1035)"/>
<path d="M6.9375 36H10.0625C10.5804 36 11 35.5523 11 35C11 34.4477 10.5804 34 10.0625 34H6.9375C6.41962 34 6 34.4477 6 35C6 35.5523 6.41962 36 6.9375 36Z" fill="url(#paint1_linear_32_1035)"/>
<path d="M34.0625 34H30.9375C30.4196 34 30 34.4477 30 35C30 35.5523 30.4196 36 30.9375 36H34.0625C34.5804 36 35 35.5523 35 35C35 34.4477 34.5804 34 34.0625 34Z" fill="url(#paint2_linear_32_1035)"/>
<path d="M58.0625 34H54.9375C54.4196 34 54 34.4477 54 35C54 35.5523 54.4196 36 54.9375 36H58.0625C58.5804 36 59 35.5523 59 35C59 34.4477 58.5804 34 58.0625 34Z" fill="url(#paint3_linear_32_1035)"/>
<defs>
<linearGradient id="paint0_linear_32_1035" x1="0" y1="41.4447" x2="64.9999" y2="41.4447" gradientUnits="userSpaceOnUse">
<stop stop-color="#C88C44"/>
<stop offset="1" stop-color="#E9C883"/>
</linearGradient>
<linearGradient id="paint1_linear_32_1035" x1="6" y1="35.2752" x2="11" y2="35.2752" gradientUnits="userSpaceOnUse">
<stop stop-color="#C88C44"/>
<stop offset="1" stop-color="#E9C883"/>
</linearGradient>
<linearGradient id="paint2_linear_32_1035" x1="30" y1="35.2752" x2="35" y2="35.2752" gradientUnits="userSpaceOnUse">
<stop stop-color="#C88C44"/>
<stop offset="1" stop-color="#E9C883"/>
</linearGradient>
<linearGradient id="paint3_linear_32_1035" x1="54" y1="35.2752" x2="59" y2="35.2752" gradientUnits="userSpaceOnUse">
<stop stop-color="#C88C44"/>
<stop offset="1" stop-color="#E9C883"/>
</linearGradient>
</defs>
</svg>
