<svg width="65" height="65" viewBox="0 0 65 65" fill="none" xmlns="http://www.w3.org/2000/svg">
<path d="M3.82558 58C3.72261 58 3.61964 58 3.56841 57.9476C3.31123 57.8957 3.05406 57.6871 2.95109 57.4267L0.122191 52.1129C-0.134981 51.5919 0.0192219 50.9672 0.533567 50.7067L2.23131 49.7686L1.30509 47.7891C1.09965 47.3205 1.25385 46.7472 1.66523 46.4867L3.51717 45.2886L2.53972 43.2048C2.33378 42.7358 2.48848 42.1629 2.89986 41.9025L4.80304 40.6001L3.82558 38.412C3.72261 38.2039 3.72261 37.9435 3.77435 37.7349L5.72876 30.1811C2.64269 27.3159 1.40805 22.7835 2.59095 18.4598C3.4142 15.4902 5.31738 12.9898 7.99158 11.4788C10.6663 9.96838 13.7011 9.60362 16.6842 10.4369C22.7534 12.1565 26.3026 18.564 24.5536 24.7111C23.3707 29.0873 19.8215 32.5773 15.8097 33.4111L9.94649 54.1448C9.89476 54.4052 9.68932 54.6138 9.48338 54.77L4.33992 57.7914C4.18572 57.9476 3.97978 58 3.82558 58ZM2.38551 52.061L4.23696 55.499L8.09455 53.2072L14.0095 32.2649C14.1125 31.8482 14.4726 31.5878 14.8328 31.5354C18.3302 31.0668 21.4675 28.0454 22.548 24.1902C23.9363 19.1369 21.0562 13.9274 16.0669 12.5207C13.6494 11.8436 11.1294 12.1565 8.96903 13.3546C6.80868 14.6045 5.21441 16.6364 4.54586 19.0326C3.51717 22.7316 4.70007 26.6388 7.52897 28.983C7.83737 29.2435 7.99158 29.6602 7.88911 30.0768L5.88296 37.8911L7.06586 40.5482C7.27179 41.0168 7.11759 41.5377 6.70571 41.8506L4.80304 43.1005L5.77999 45.1325C5.98593 45.601 5.83173 46.1744 5.41985 46.4348L3.56841 47.6329L4.54586 49.6648C4.80304 50.1858 4.5971 50.7586 4.13399 51.0191L2.38551 52.061Z" fill="url(#paint0_linear_32_1010)"/>
<path d="M14.5002 22C14.2028 22 13.8561 21.9499 13.5592 21.8501C12.668 21.6008 11.9252 21.003 11.43 20.2051C10.9841 19.4077 10.885 18.4603 11.1326 17.5631C11.6776 15.7186 13.6085 14.6218 15.4408 15.1203C16.332 15.3695 17.0748 15.9678 17.57 16.7657C18.0159 17.5631 18.115 18.5105 17.8674 19.4077C17.4215 21.003 16.0351 22 14.5002 22ZM14.5002 17.015C13.8561 17.015 13.2125 17.4633 13.064 18.1113C12.9649 18.5105 13.0147 18.9092 13.2125 19.2582C13.4107 19.6068 13.7575 19.8561 14.1037 19.9558C14.8963 20.2051 15.7382 19.7066 15.9858 18.9092C16.0844 18.5105 16.0351 18.1113 15.8369 17.7627C15.6391 17.4137 15.2923 17.1644 14.9456 17.0646C14.7478 17.015 14.6487 17.015 14.5002 17.015Z" fill="url(#paint1_linear_32_1010)"/>
<path d="M23.4642 27C21.2366 27 19.1644 26.2613 17.4033 24.8887C16.9368 24.5191 16.8852 23.8861 17.1958 23.4109C17.5586 22.9356 18.1803 22.883 18.6463 23.1995C20.0452 24.3083 21.7031 24.8361 23.4642 24.8361C24.8631 24.8361 26.2619 24.4665 27.4534 23.7273C27.9715 23.4109 28.5932 23.6222 28.8523 24.0969C29.1629 24.6248 28.956 25.2583 28.4895 25.5222C26.9874 26.5253 25.2258 27 23.4642 27Z" fill="url(#paint2_linear_32_1010)"/>
<path d="M15.0571 16H15.0045C14.4228 15.9495 14 15.4975 14 14.9444C14.3701 9.91942 18.8098 6 24.0955 6C28.7999 6 32.9758 9.16567 33.9798 13.5876C34.0856 14.1406 33.7687 14.6431 33.187 14.7938C32.6057 14.8944 32.0772 14.5926 31.9187 14.04C31.1259 10.4725 27.8486 7.95996 24.0955 7.95996C19.9201 7.95996 16.3786 11.0751 16.1143 15.045C16.0616 15.5476 15.5857 16 15.0571 16Z" fill="url(#paint3_linear_32_1010)"/>
<path d="M48.7508 51C48.492 51 48.2333 50.8969 48.0266 50.6897L30.4323 33.0953C30.0184 32.6814 29.0865 31.5944 29.0865 30.3007L28 18.8645C28 18.813 28 18.813 28 18.7609C28 17.3636 28.4139 16.3287 29.3452 15.3458C30.2771 14.4144 31.3121 14 32.5022 14H32.7609H32.8645L44.3006 15.035C45.6459 15.035 46.6809 16.0184 47.0952 16.3807L64.6896 33.9751C65.1035 34.389 65.1035 35.0101 64.6896 35.424L49.4755 50.6897C49.3203 50.8969 49.0616 51 48.7508 51ZM30.0699 18.7094L31.1564 30.1456V30.2492C31.1564 30.663 31.4672 31.1805 31.9327 31.6465L48.8028 48.5162L62.5161 34.7514L45.6459 17.8811C45.1805 17.4157 44.6109 17.1049 44.2491 17.1049C44.197 17.1049 44.197 17.1049 44.1455 17.1049L32.5022 16.0184C31.8811 16.0184 31.3636 16.2771 30.8461 16.7946C30.2771 17.3636 30.0699 17.8811 30.0699 18.7094Z" fill="url(#paint4_linear_32_1010)"/>
<path d="M41.022 32C40.7665 32 40.5111 31.8977 40.3065 31.6936C39.8978 31.2845 39.8978 30.6718 40.3065 30.2626L45.2626 25.3069C45.6713 24.8977 46.2845 24.8977 46.6931 25.3069C47.1023 25.7155 47.1023 26.3287 46.6931 26.7374L41.7375 31.6936C41.5329 31.8977 41.2775 32 41.022 32Z" fill="url(#paint5_linear_32_1010)"/>
<path d="M46.0219 38C45.7664 38 45.5109 37.8977 45.3069 37.6936C44.8977 37.2849 44.8977 36.6717 45.3069 36.263L50.2625 31.3065C50.6716 30.8978 51.2844 30.8978 51.6935 31.3065C52.1022 31.7152 52.1022 32.3284 51.6935 32.7371L46.7374 37.6936C46.5328 37.8977 46.2773 38 46.0219 38Z" fill="url(#paint6_linear_32_1010)"/>
<defs>
<linearGradient id="paint0_linear_32_1010" x1="0" y1="40.6053" x2="25" y2="40.6053" gradientUnits="userSpaceOnUse">
<stop stop-color="#C88C44"/>
<stop offset="1" stop-color="#E9C883"/>
</linearGradient>
<linearGradient id="paint1_linear_32_1010" x1="11" y1="19.4633" x2="18" y2="19.4633" gradientUnits="userSpaceOnUse">
<stop stop-color="#C88C44"/>
<stop offset="1" stop-color="#E9C883"/>
</linearGradient>
<linearGradient id="paint2_linear_32_1010" x1="17" y1="25.5504" x2="29" y2="25.5504" gradientUnits="userSpaceOnUse">
<stop stop-color="#C88C44"/>
<stop offset="1" stop-color="#E9C883"/>
</linearGradient>
<linearGradient id="paint3_linear_32_1010" x1="14" y1="12.3761" x2="34" y2="12.3761" gradientUnits="userSpaceOnUse">
<stop stop-color="#C88C44"/>
<stop offset="1" stop-color="#E9C883"/>
</linearGradient>
<linearGradient id="paint4_linear_32_1010" x1="28" y1="37.5916" x2="65" y2="37.5916" gradientUnits="userSpaceOnUse">
<stop stop-color="#C88C44"/>
<stop offset="1" stop-color="#E9C883"/>
</linearGradient>
<linearGradient id="paint5_linear_32_1010" x1="40" y1="29.4633" x2="47" y2="29.4633" gradientUnits="userSpaceOnUse">
<stop stop-color="#C88C44"/>
<stop offset="1" stop-color="#E9C883"/>
</linearGradient>
<linearGradient id="paint6_linear_32_1010" x1="45" y1="35.4633" x2="52" y2="35.4633" gradientUnits="userSpaceOnUse">
<stop stop-color="#C88C44"/>
<stop offset="1" stop-color="#E9C883"/>
</linearGradient>
</defs>
</svg>
