<svg width="65" height="65" viewBox="0 0 65 65" fill="none" xmlns="http://www.w3.org/2000/svg">
<path d="M64.0477 10.4356H60.4283V10.3305C60.4283 9.2797 59.5667 8.42486 58.5077 8.42486H55.4302C55.0923 7.16024 53.9292 6.22528 52.5499 6.22528H47.3207C46.9164 5.56368 46.1858 5.11925 45.3507 5.11925H42.3945C42.1342 5.11925 41.8848 5.16435 41.6512 5.24359C41.2148 4.50124 40.4058 4 39.4791 4C37.9955 4 27.0623 4 25.4402 4C24.9143 4 24.4881 4.42301 24.4881 4.94478C24.4881 5.46655 24.9143 5.88957 25.4402 5.88957H35.049V11.7007C35.049 12.2225 35.4752 12.6455 36.0012 12.6455C36.5271 12.6455 36.9533 12.2225 36.9533 11.7007V5.88957H39.4791C39.8158 5.88957 40.0898 6.16141 40.0898 6.49549V7.40626V21.3151C40.0898 21.6492 39.8159 21.921 39.4791 21.921H36.9533V16.1097C36.9533 15.5879 36.5271 15.1649 36.0012 15.1649C35.4752 15.1649 35.049 15.5879 35.049 16.1097V21.9209H32.7545C31.8193 21.9209 30.8823 21.7028 30.0445 21.29C28.945 20.7484 27.7151 20.4621 26.4877 20.4621H20.266C19.4236 20.4621 18.5895 20.7015 17.9055 21.1026L15.6594 22.42C14.4333 23.1392 13.6203 24.3438 13.4293 25.7251C13.0944 28.1445 12.0734 30.1608 10.9095 32.309C10.2652 33.498 9.75642 34.4372 9.60293 35.275C9.3475 36.6686 10.094 37.9493 11.6511 38.7887C11.8857 38.9151 12.0314 39.1662 12.0314 39.4438V41.7632C12.0314 42.1807 11.6891 42.5204 11.2683 42.5204H4.15985C2.9161 42.5204 1.90429 41.5164 1.90429 40.2823V32.2731C1.90429 24.8733 6.82102 15.9938 8.93516 12.5195C9.60395 11.4204 9.71998 10.1048 9.25381 8.9096C8.9834 8.2165 9.07126 7.46735 9.49451 6.85425C9.9179 6.24115 10.5902 5.88957 11.3393 5.88957H20.9969C21.5229 5.88957 21.9491 5.46655 21.9491 4.94478C21.9491 4.42301 21.5229 4 20.9969 4H11.3393C9.97274 4 8.69598 4.66777 7.92361 5.78614C7.15123 6.90464 6.98467 8.32736 7.47788 9.59185C7.72962 10.2373 7.66653 10.9484 7.30484 11.5429C5.10844 15.1526 0 24.3984 0 32.2731V40.2827C0 42.5586 1.86607 44.4104 4.15985 44.4104H6.10984V54.5523C6.10984 58.1076 9.02479 61 12.6079 61H24.7335C28.3166 61 31.2316 58.1076 31.2316 54.5523V34.6048C31.2316 32.0914 33.2922 30.0467 35.8253 30.0467H47.9509C50.4839 30.0467 52.5447 32.0914 52.5447 34.6048V41.5275H52.3594C50.118 41.5275 48.2945 43.337 48.2945 45.561V49.0918C48.2945 50.1704 48.9997 51.0867 49.9757 51.4161V54.5401C49.9757 55.0619 50.4019 55.4849 50.9278 55.4849C51.4538 55.4849 51.88 55.0619 51.88 54.5401V51.5483H55.1136V54.5401C55.1136 55.0619 55.5398 55.4849 56.0657 55.4849C56.5917 55.4849 57.0179 55.0619 57.0179 54.5401V51.4163C57.994 51.0868 58.6992 50.1705 58.6992 49.0918V45.561C58.6992 43.337 56.8757 41.5275 54.6342 41.5275H54.4489V34.6048C54.4489 31.0495 51.5339 28.1571 47.9508 28.1571H35.8252C32.2421 28.1571 29.3271 31.0495 29.3271 34.6048V54.5522C29.3271 57.0655 27.2665 59.1103 24.7334 59.1103H12.6079C10.0749 59.1103 8.01412 57.0655 8.01412 54.5522V44.4102H11.2685C12.7393 44.4102 13.9359 43.2228 13.9359 41.7635V39.4441C13.9359 38.4732 13.4088 37.5859 12.5603 37.1285C11.7383 36.6853 11.3737 36.1755 11.4767 35.6132C11.5764 35.0691 12.0449 34.2047 12.5871 33.2039C13.0729 32.3072 13.6475 31.2459 14.1532 30.0467H17.0962C18.7485 30.0467 20.0928 28.7127 20.0928 27.0732V22.3575C20.223 22.3492 19.7436 22.3517 26.488 22.3517C27.4231 22.3517 28.3601 22.5698 29.198 22.9826C30.2974 23.5241 31.5274 23.8105 32.7547 23.8105H39.4794C40.8661 23.8105 41.9943 22.691 41.9943 21.315V17.6046C42.1247 17.6274 42.258 17.6415 42.3947 17.6415H45.3508C46.1859 17.6415 46.9165 17.1971 47.3209 16.5355H52.55C53.9294 16.5355 55.0924 15.6005 55.4303 14.3359H58.5078C59.5668 14.3359 60.4284 13.4811 60.4284 12.4302V12.325H64.0479C64.5738 12.325 65 11.902 65 11.3803C65 10.8585 64.5737 10.4356 64.0477 10.4356ZM56.7947 45.561V49.0918C56.7947 49.3991 56.533 49.6587 56.2234 49.6587H50.7698C50.4601 49.6587 50.1985 49.3991 50.1985 49.0918V45.561C50.1985 44.3789 51.1678 43.4171 52.3591 43.4171H54.6341C55.8254 43.4171 56.7947 44.3788 56.7947 45.561ZM18.1885 27.0732C18.1885 27.6708 17.6986 28.1571 17.0962 28.1571H14.8386C15.0657 27.3979 15.223 26.6551 15.3162 25.9824C15.4278 25.1762 15.9061 24.4708 16.6287 24.0469L18.1885 23.132V27.0732ZM45.3507 15.7521H42.3945C42.1737 15.7521 41.9941 15.5738 41.9941 15.3547V7.40626C41.9941 7.18707 42.1737 7.00882 42.3945 7.00882H45.3506C45.5743 7.00882 45.7511 7.19072 45.7511 7.40626V15.3547C45.7512 15.5697 45.5749 15.7521 45.3507 15.7521ZM53.6253 13.5788C53.6253 14.1672 53.1428 14.6461 52.5498 14.6461H47.6554V8.11484H52.5498C53.1428 8.11484 53.6253 8.59353 53.6253 9.18207V13.5788ZM58.524 12.4304C58.524 12.4392 58.5167 12.4465 58.5077 12.4465H55.5296V10.3144H58.5077C58.5167 10.3144 58.524 10.3217 58.524 10.3305V12.4304Z" fill="url(#paint0_linear_32_1048)"/>
<path d="M12 8.94215V13.0578C12 13.5782 12.4476 14 13 14C13.5524 14 14 13.5782 14 13.0578V8.94215C14 8.42183 13.5524 8 13 8C12.4476 8 12 8.42183 12 8.94215Z" fill="url(#paint1_linear_32_1048)"/>
<path d="M16 8.94215V13.0578C16 13.5782 16.4476 14 17 14C17.5524 14 18 13.5782 18 13.0578V8.94215C18 8.42183 17.5524 8 17 8C16.4476 8 16 8.42183 16 8.94215Z" fill="url(#paint2_linear_32_1048)"/>
<path d="M19 8.94215V13.0578C19 13.5782 19.4476 14 20 14C20.5524 14 21 13.5782 21 13.0578V8.94215C21 8.42183 20.5524 8 20 8C19.4476 8 19 8.42183 19 8.94215Z" fill="url(#paint3_linear_32_1048)"/>
<path d="M24 14C24.5524 14 25 13.5782 25 13.0578V8.94215C25 8.42183 24.5524 8 24 8C23.4476 8 23 8.42183 23 8.94215V13.0578C23 13.5782 23.4476 14 24 14Z" fill="url(#paint4_linear_32_1048)"/>
<defs>
<linearGradient id="paint0_linear_32_1048" x1="0" y1="40.3438" x2="65" y2="40.3438" gradientUnits="userSpaceOnUse">
<stop stop-color="#C88C44"/>
<stop offset="1" stop-color="#E9C883"/>
</linearGradient>
<linearGradient id="paint1_linear_32_1048" x1="12" y1="11.8257" x2="14" y2="11.8257" gradientUnits="userSpaceOnUse">
<stop stop-color="#C88C44"/>
<stop offset="1" stop-color="#E9C883"/>
</linearGradient>
<linearGradient id="paint2_linear_32_1048" x1="16" y1="11.8257" x2="18" y2="11.8257" gradientUnits="userSpaceOnUse">
<stop stop-color="#C88C44"/>
<stop offset="1" stop-color="#E9C883"/>
</linearGradient>
<linearGradient id="paint3_linear_32_1048" x1="19" y1="11.8257" x2="21" y2="11.8257" gradientUnits="userSpaceOnUse">
<stop stop-color="#C88C44"/>
<stop offset="1" stop-color="#E9C883"/>
</linearGradient>
<linearGradient id="paint4_linear_32_1048" x1="23" y1="11.8257" x2="25" y2="11.8257" gradientUnits="userSpaceOnUse">
<stop stop-color="#C88C44"/>
<stop offset="1" stop-color="#E9C883"/>
</linearGradient>
</defs>
</svg>
