<svg width="65" height="65" viewBox="0 0 65 65" fill="none" xmlns="http://www.w3.org/2000/svg">
<path d="M32.5 21C27.2613 21 23 25.2613 23 30.5C23 35.7387 27.2613 40 32.5 40C37.7387 40 42 35.7387 42 30.5C42 25.2613 37.7387 21 32.5 21ZM32.5 37.8889C28.4266 37.8889 25.1111 34.5734 25.1111 30.5C25.1111 26.4266 28.4266 23.1111 32.5 23.1111C36.5734 23.1111 39.8889 26.4266 39.8889 30.5C39.8889 34.5734 36.5734 37.8889 32.5 37.8889Z" fill="url(#paint0_linear_32_1018)"/>
<path d="M6 11V21L14 16.0005L6 11ZM8.01435 14.7071L10.0861 16.0005L8.01435 17.2939V14.7071Z" fill="url(#paint1_linear_32_1018)"/>
<path d="M50 15H52V17H50V15Z" fill="url(#paint2_linear_32_1018)"/>
<path d="M55 15H57V17H55V15Z" fill="url(#paint3_linear_32_1018)"/>
<path d="M59 15H61V17H59V15Z" fill="url(#paint4_linear_32_1018)"/>
<path d="M58.2756 25.1613C59.671 25.1613 60.8064 24.0259 60.8064 22.6305V20.9677H62.9032C64.0596 20.9677 65 20.0273 65 18.871V12.5806C65 11.4243 64.0596 10.4839 62.9032 10.4839H48.2258C47.688 10.4839 47.2005 10.6935 46.8293 11.028C45.3092 9.90306 43.6716 8.96581 41.9355 8.22669V7.62282L40.2287 7.06194C39.9498 6.96968 39.7255 6.76105 39.6112 6.48847C39.498 6.21798 39.5074 5.9129 39.6385 5.64976L40.4394 4.03629L37.8992 1.49605L36.2836 2.29597C36.0215 2.42702 35.7185 2.43645 35.446 2.32323C35.1744 2.21 34.9658 1.9846 34.8746 1.70677L34.3127 0H30.6863L30.1254 1.70677C30.0331 1.98565 29.8245 2.21 29.5519 2.32427C29.2804 2.43645 28.9774 2.42911 28.7132 2.29702L27.1008 1.49605L24.5606 4.03629L25.3615 5.65185C25.4926 5.9129 25.5031 6.21798 25.3888 6.48952C25.2745 6.76105 25.0502 6.96968 24.7723 7.06089L23.0645 7.62282V8.22879C21.1764 9.0329 19.4056 10.0708 17.7775 11.3299C16.1934 8.33677 13.0514 6.29032 9.43548 6.29032C4.23234 6.29032 0 10.5227 0 15.7258C0 20.7727 3.98492 24.894 8.97209 25.1382C8.58839 26.8597 8.3871 28.6231 8.3871 30.4032C8.3871 30.7534 8.4196 31.1014 8.43427 31.4516H2.09677C0.940403 31.4516 0 32.392 0 33.5484V41.9355C0 43.0919 0.940403 44.0323 2.09677 44.0323H12.6184C13.1206 44.763 13.6594 45.4675 14.2392 46.1395L0 46.1615V62.9336H29.358C29.3748 64.0753 30.3057 65 31.4516 65H33.5484C34.7048 65 35.6452 64.0596 35.6452 62.9032H38.7903C40.5243 62.9032 41.9355 61.4921 41.9355 59.7581C41.9355 59.3439 41.8506 58.9508 41.7048 58.5881C43.0415 58.2253 44.0322 57.0144 44.0322 55.5645C44.0322 54.7562 43.7167 54.0255 43.2145 53.4677C43.6727 52.9603 43.962 52.3072 44.0113 51.5838C46.3702 50.2985 48.511 48.6252 50.3236 46.6396V48.2258C50.3236 49.3822 51.264 50.3226 52.4204 50.3226H54.5172C55.6735 50.3226 56.6139 49.3822 56.6139 48.2258V44.439L61.2499 45.9854C61.5403 46.0798 61.8422 46.129 62.1473 46.129C63.7199 46.129 65 44.8489 65 43.2764V34.3032C65 32.7306 63.7199 31.4506 62.1473 31.4506C61.8422 31.4506 61.5403 31.4998 61.2457 31.5973L56.4326 33.2014C56.5395 32.2746 56.6129 31.3415 56.6129 30.4032C56.6129 28.0506 56.2795 25.7641 55.6285 23.5625L56.486 24.4201C56.9568 24.8908 57.6089 25.1613 58.2756 25.1613ZM48.2258 12.5806H62.9032L62.9053 18.871H58.7097V22.6305C58.7097 22.9848 58.219 23.1872 57.9685 22.9377L53.9018 18.871H48.2258V12.5806ZM25.1613 9.13984L25.4286 9.05177C26.2852 8.76871 26.976 8.12919 27.3241 7.29677C27.6722 6.46435 27.6407 5.52395 27.2392 4.71774L27.1081 4.45355L27.5191 4.04258L27.7812 4.17363C28.5895 4.57516 29.5299 4.60766 30.3613 4.25855C31.1948 3.91048 31.8343 3.22064 32.1184 2.36202L32.2043 2.09677H32.7956L32.8837 2.36411C33.1668 3.22065 33.8063 3.91153 34.6387 4.2596C35.4701 4.60766 36.4105 4.57516 37.2177 4.17468L37.4819 4.04363L37.8929 4.4546L37.7618 4.71669C37.3603 5.525 37.3289 6.4654 37.6769 7.29677C38.025 8.13024 38.7148 8.76976 39.5735 9.05387L39.8387 9.13984V9.73113L39.5714 9.81919C38.7148 10.1023 38.0239 10.7418 37.6759 11.5742C37.3278 12.4066 37.3593 13.347 37.7608 14.1532L37.8918 14.4174L37.4809 14.8284L37.2188 14.6973C36.4115 14.2969 35.4701 14.2644 34.6387 14.6124C33.8052 14.9605 33.1657 15.6503 32.8816 16.509L32.7956 16.7721C32.6027 16.7721 32.3941 16.7721 32.2023 16.7721L32.1152 16.5079C31.8322 15.6514 31.1927 14.9605 30.3602 14.6124C29.5289 14.2644 28.5874 14.2969 27.7812 14.6973L27.517 14.8284L27.106 14.4174L27.2371 14.1553C27.6386 13.347 27.6701 12.4066 27.322 11.5752C26.9739 10.7418 26.2841 10.1023 25.4255 9.81814L25.1613 9.73113V9.13984ZM35.6452 50.3477L40.8871 50.3226C41.4658 50.3226 41.9355 50.7923 41.9355 51.371C41.9355 51.9497 41.4658 52.4194 40.8818 52.4194L35.6452 52.4445V50.3477ZM40.8818 48.2258L35.6452 48.251V48.2258C37.1905 48.2258 38.5282 47.3766 39.2558 46.129H40.8871C41.4658 46.129 41.9355 46.5987 41.9355 47.1774C41.9355 47.7561 41.4658 48.2258 40.8818 48.2258ZM37.7419 44.0323C37.7419 45.1886 36.8015 46.129 35.6452 46.129H29.7553L29.466 46.7088C28.8904 47.8589 27.9395 48.8098 26.7894 49.3853L27.7277 51.2609C28.3169 50.9663 28.8568 50.5868 29.3559 50.159V60.8379H22.0172V47.4343C23.1641 45.3291 25.3406 44.0323 27.7529 44.0323H37.7419ZM32.5 41.9355C26.1415 41.9355 20.9677 36.7617 20.9677 30.4032C20.9677 24.0448 26.1415 18.871 32.5 18.871C38.8585 18.871 44.0322 24.0448 44.0322 30.4032C44.0322 36.7617 38.8585 41.9355 32.5 41.9355ZM2.09677 15.7258C2.09677 11.6801 5.38976 8.3871 9.43548 8.3871C13.4812 8.3871 16.7742 11.6801 16.7742 15.7258C16.7742 19.7715 13.4812 23.0645 9.43548 23.0645C5.38976 23.0645 2.09677 19.7715 2.09677 15.7258ZM4.8079 37.7419L2.09677 40.4531V35.0319L4.8079 37.7419ZM6.33226 39.1824C6.93089 39.6039 7.6396 39.8387 8.3871 39.8387C9.13459 39.8387 9.8433 39.6039 10.4419 39.1824L13.195 41.9355H3.57919L6.33226 39.1824ZM14.6795 40.4552L11.9663 37.7419L14.6774 35.0287L14.6795 40.4552ZM9.43548 37.3079C8.8746 37.8667 7.8996 37.8667 7.33871 37.3079L3.57814 33.5484H13.1929L9.43548 37.3079ZM15.1702 43.9673C16.0875 43.745 16.7742 42.921 16.7742 41.9355V33.5484C16.7742 32.392 15.8338 31.4516 14.6774 31.4516H10.531C10.5143 31.1014 10.4839 30.7534 10.4839 30.4032C10.4839 28.5685 10.7219 26.7548 11.1664 24.9946C15.5444 24.1789 18.871 20.3366 18.871 15.7258C18.871 14.9154 18.7577 14.1333 18.5648 13.3816C19.9529 12.2431 21.4563 11.2817 23.0645 10.5174V11.2481L24.7713 11.809C25.0502 11.9013 25.2745 12.1099 25.3888 12.3825C25.502 12.653 25.4926 12.9581 25.3615 13.2212L24.5606 14.8347L27.1008 17.3749L28.7164 16.574C28.9764 16.4419 29.2814 16.4324 29.554 16.5467C29.7689 16.6369 29.9252 16.8088 30.0342 17.009C23.6935 18.1748 18.871 23.7313 18.871 30.4032C18.871 35.4407 21.6251 39.8377 25.6991 42.1965C23.4797 42.7344 21.5695 44.1319 20.3712 46.1301L17.1118 46.1353C16.4177 45.456 15.7688 44.7315 15.1702 43.9673ZM2.09677 48.2541L19.9194 48.2269V60.8369H2.09677V48.2541ZM31.4516 62.9032V48.2258H33.5484V62.9032H31.4516ZM38.7903 60.8064H35.6452V58.7348L38.8396 58.7191C39.3942 58.7474 39.8387 59.1972 39.8387 59.7581C39.8387 60.3368 39.369 60.8064 38.7903 60.8064ZM40.8818 56.6129L38.8868 56.6223C38.8543 56.6213 38.8228 56.6129 38.7903 56.6129V56.6234L35.6452 56.6391V54.5423L40.8871 54.5161C41.4658 54.5161 41.9355 54.9858 41.9355 55.5645C41.9355 56.1432 41.4658 56.6129 40.8818 56.6129ZM43.4168 49.5195C43.3539 49.4335 43.2858 49.3528 43.2145 49.2742C43.7177 48.7164 44.0322 47.9857 44.0322 47.1774C44.0322 45.4434 42.6211 44.0323 40.8871 44.0323H39.8387C39.8387 43.355 39.5106 42.7574 39.0094 42.3737C43.247 40.0599 46.129 35.5623 46.129 30.4032C46.129 23.7313 41.3064 18.1748 34.9658 17.009C35.0759 16.8088 35.2321 16.6369 35.447 16.5467C35.7175 16.4335 36.0215 16.4429 36.2857 16.574L37.8992 17.3749L40.4394 14.8347L39.6385 13.2191C39.5074 12.9581 39.4969 12.653 39.6112 12.3815C39.7255 12.1099 39.9498 11.9013 40.2277 11.8101L41.9355 11.2481V10.5122C43.4252 11.2198 44.8269 12.0994 46.129 13.129V18.871C46.129 20.0273 47.0694 20.9677 48.2258 20.9677H52.3879C53.7938 23.9231 54.5161 27.0924 54.5161 30.4032C54.5161 31.46 54.4197 32.5105 54.2708 33.5484H49.2742C47.5402 33.5484 46.129 34.9595 46.129 36.6935V40.8871C46.129 42.6211 47.5402 44.0323 49.2742 44.0323H49.7868C48.035 46.2496 45.8617 48.1178 43.4168 49.5195ZM49.2742 41.9355C48.6955 41.9355 48.2258 41.4658 48.2258 40.8871V36.6935C48.2258 36.1148 48.6955 35.6452 49.2742 35.6452H54.5161V41.9355H49.2742ZM52.4193 48.2258V44.0323H54.5161V48.2258H52.4193ZM61.9062 33.5882C62.3874 33.4205 62.9032 33.8073 62.9032 34.3043V43.2774C62.9032 43.7744 62.3717 44.1476 61.9093 43.9956L56.6129 42.228V35.3516L61.9062 33.5882Z" fill="url(#paint5_linear_32_1018)"/>
<path d="M32 12C33.654 12 35 10.654 35 9C35 7.346 33.654 6 32 6C30.346 6 29 7.346 29 9C29 10.654 30.346 12 32 12ZM32 8C32.552 8 33 8.448 33 9C33 9.552 32.552 10 32 10C31.448 10 31 9.552 31 9C31 8.448 31.448 8 32 8Z" fill="url(#paint6_linear_32_1018)"/>
<defs>
<linearGradient id="paint0_linear_32_1018" x1="23" y1="33.1146" x2="42" y2="33.1146" gradientUnits="userSpaceOnUse">
<stop stop-color="#C88C44"/>
<stop offset="1" stop-color="#E9C883"/>
</linearGradient>
<linearGradient id="paint1_linear_32_1018" x1="6" y1="17.3761" x2="14" y2="17.3761" gradientUnits="userSpaceOnUse">
<stop stop-color="#C88C44"/>
<stop offset="1" stop-color="#E9C883"/>
</linearGradient>
<linearGradient id="paint2_linear_32_1018" x1="50" y1="16.2752" x2="52" y2="16.2752" gradientUnits="userSpaceOnUse">
<stop stop-color="#C88C44"/>
<stop offset="1" stop-color="#E9C883"/>
</linearGradient>
<linearGradient id="paint3_linear_32_1018" x1="55" y1="16.2752" x2="57" y2="16.2752" gradientUnits="userSpaceOnUse">
<stop stop-color="#C88C44"/>
<stop offset="1" stop-color="#E9C883"/>
</linearGradient>
<linearGradient id="paint4_linear_32_1018" x1="59" y1="16.2752" x2="61" y2="16.2752" gradientUnits="userSpaceOnUse">
<stop stop-color="#C88C44"/>
<stop offset="1" stop-color="#E9C883"/>
</linearGradient>
<linearGradient id="paint5_linear_32_1018" x1="0" y1="41.4447" x2="65" y2="41.4447" gradientUnits="userSpaceOnUse">
<stop stop-color="#C88C44"/>
<stop offset="1" stop-color="#E9C883"/>
</linearGradient>
<linearGradient id="paint6_linear_32_1018" x1="29" y1="9.82566" x2="35" y2="9.82566" gradientUnits="userSpaceOnUse">
<stop stop-color="#C88C44"/>
<stop offset="1" stop-color="#E9C883"/>
</linearGradient>
</defs>
</svg>
