<svg width="65" height="65" viewBox="0 0 65 65" fill="none" xmlns="http://www.w3.org/2000/svg">
<path d="M37.9999 55.7401C36.9424 54.7858 35.4065 54.6628 34.2311 55.2862L33.93 55.0216L36.6855 52.6005C37.0793 52.2545 37.1035 51.6707 36.7395 51.2965C36.3754 50.9222 35.7613 50.8992 35.3677 51.2452L32.4998 53.765L29.6318 51.2451C29.2382 50.8992 28.6241 50.9222 28.26 51.2964C27.8961 51.6706 27.9203 52.2544 28.314 52.6004L31.0695 55.0215L30.7677 55.2868C29.575 54.6571 28.0403 54.801 26.9995 55.74C26.378 56.3009 26.0234 57.0582 26.0011 57.8725C25.9539 59.5924 27.4057 61 29.2089 61C30.0024 61 30.7972 60.7227 31.4168 60.1636V60.1638C32.4677 59.2153 32.6812 57.7747 32.0998 56.6294L32.4996 56.278L32.8994 56.6293C32.3175 57.7757 32.5321 59.216 33.5824 60.1635C34.8654 61.3212 36.9 61.2708 38.1178 60.0512C39.3387 58.8287 39.2859 56.9005 37.9999 55.7401ZM30.0804 58.825C30.0804 58.8252 30.0804 58.8252 30.0804 58.825C29.2644 59.5609 27.9126 58.9894 27.9422 57.9204C27.9508 57.5989 28.0909 57.2999 28.3363 57.0785C28.8432 56.6213 29.6466 56.6416 30.1272 57.1228C30.6088 57.6054 30.5884 58.3668 30.0804 58.825ZM36.71 58.7808C36.2255 59.2657 35.4239 59.2805 34.9191 58.825C34.9191 58.825 34.9191 58.825 34.9191 58.8249C34.4124 58.368 34.3895 57.6067 34.8725 57.1228C35.3536 56.6414 36.1567 56.6214 36.6634 57.0785C37.1701 57.5359 37.1928 58.297 36.71 58.7808Z" fill="url(#paint0_linear_32_1055)"/>
<path d="M51.4238 39.0166C51.4175 39.0141 51.4114 39.0117 51.4051 39.0091L47.9652 37.6842C48.7774 36.9982 49.3934 36.1092 49.7801 35.0453C49.9599 34.5507 49.7026 34.005 49.2052 33.8261C48.7081 33.6475 48.1592 33.9032 47.9793 34.3978C47.6924 35.1871 47.0788 36.2227 45.7744 36.8403C45.4791 36.7265 43.565 35.9894 43.1084 35.8134C42.9263 35.2717 42.5087 34.8245 41.9555 34.6082L39.2092 33.534C39.2085 33.5336 39.2076 33.5335 39.2068 33.5332C39.0126 33.4575 38.7707 33.4085 38.5508 33.4048L38.5463 31.5473C40.6348 29.9863 42.1174 27.6355 42.4875 24.8756C42.8211 24.8589 43.1826 24.8036 43.5063 24.7176C43.7604 25.958 44.2843 27.1044 44.9966 27.9327C45.4974 28.5151 46.167 29.01 47.1036 29.4903C47.4238 29.6544 47.7346 30.0692 47.9566 30.628C48.1509 31.1171 48.7074 31.357 49.1988 31.1637C49.6907 30.9705 49.9317 30.4173 49.7376 29.9283C49.3361 28.9179 48.7289 28.1812 47.9811 27.7978C47.2721 27.4343 46.7861 27.0839 46.4518 26.695C45.8566 26.0028 45.432 24.9271 45.2963 23.8035C45.3183 23.7854 45.3409 23.7682 45.3626 23.7497C46.3488 22.9114 46.9143 21.7133 46.9143 20.4622C46.9143 19.5178 46.5944 18.603 46.0066 17.8471V13.3773C46.0066 5.95444 39.9417 -0.0545997 32.4551 0.000374213C25.0937 0.0538246 19.1048 6.12444 19.1048 13.5331V17.8467C18.5168 18.6029 18.1967 19.5179 18.1967 20.4622C18.1967 21.6931 18.7452 22.8723 19.7023 23.7084C19.5782 24.856 19.1411 25.9909 18.5356 26.695C18.2013 27.0839 17.7151 27.4341 17.0061 27.7978C15.5742 28.5321 14.6605 30.6493 14.7845 32.9465C14.8893 34.8908 15.6988 36.5564 17.0309 37.6847L13.5949 39.0095C13.5887 39.0119 13.5826 39.0143 13.5765 39.0169C10.8907 40.1161 8 43.2661 8 47.5847V62.3962C8 63.832 9.17445 65 10.6181 65H54.382C55.8256 65 57 63.832 57 62.3962C57 60.8433 57 49.234 57 47.5847C57 43.8838 54.707 40.3606 51.4238 39.0166ZM32.4999 38.9699L28.274 34.6407C28.3272 34.4673 28.3569 34.2745 28.3569 34.0801V32.6093C30.7901 33.6868 33.886 33.8821 36.6341 32.6653L36.6376 34.0883C36.6381 34.2594 36.6659 34.4533 36.7254 34.6412L32.4999 38.9699ZM23.6988 36.4391C23.6988 36.413 23.7144 36.3902 23.7388 36.3807L26.4422 35.3233V48.1646H23.699C23.6988 46.6906 23.6988 37.8673 23.6988 36.4391ZM20.1114 20.4622C20.1114 19.1176 21.2183 18.2336 22.537 18.0194V22.9583C21.2073 22.8107 20.1114 21.7779 20.1114 20.4622ZM24.4519 23.6667V18.0176C27.0251 18.0176 28.7394 17.9793 30.2311 17.2133C30.2377 17.2099 30.2447 17.207 30.2514 17.2035C31.188 16.7184 31.9859 16.0026 32.5565 15.127C33.5615 16.6652 35.2705 17.7116 37.1975 17.8743C39.2264 18.0463 38.5532 18.0176 40.6588 18.0176V23.5794C40.6588 27.9534 37.048 31.6146 32.6515 31.5976C27.6828 31.5808 24.4519 27.7164 24.4519 23.6667ZM44.9994 20.4622C44.9994 21.7868 43.8934 22.8118 42.5738 22.9585V18.01C43.8818 18.196 44.9994 19.122 44.9994 20.4622ZM28.3569 37.4597L31.3557 40.5318L29.1922 42.6576C29.1226 42.726 29.0075 42.7185 28.9484 42.6384L28.3569 41.8381V37.4597ZM36.6364 37.4666V41.8472L36.0516 42.6384C35.993 42.7179 35.8783 42.7269 35.8078 42.6576L33.6443 40.5318L36.6364 37.4666ZM38.5513 35.3233L41.2547 36.3807C41.2786 36.3899 41.2947 36.4136 41.2947 36.4391V48.1646H38.5514C38.5513 46.6863 38.5513 37.3221 38.5513 35.3233ZM21.0196 13.5331C21.0196 7.16692 26.1557 1.95062 32.4689 1.90478C38.8347 1.8507 44.0916 6.96518 44.0916 13.3773V16.4682C42.2372 15.6978 42.2512 16.3914 37.3594 15.9766C35.5919 15.8275 34.0563 14.6024 33.6343 12.8702C33.513 12.3726 33.0694 12.0249 32.5556 12.0249C31.8638 12.0249 31.4773 12.6459 31.4773 12.8691C30.9813 14.5954 29.721 15.7723 27.6848 15.9871C23.069 16.3774 22.8734 15.7039 21.0194 16.4975V13.5331H21.0196ZM16.6964 32.8443C16.6074 31.1943 17.2433 29.8186 17.8835 29.4903C18.8203 29.0101 19.4898 28.5151 19.9906 27.9327C20.7125 27.0935 21.2386 25.9368 21.4892 24.6854C21.8244 24.7838 22.2312 24.8563 22.613 24.8759C22.9616 27.6186 24.3844 29.9472 26.4419 31.4888L26.4421 33.4048C26.2273 33.4081 25.9774 33.4585 25.7842 33.5342L23.0379 34.6084C22.4817 34.8258 22.0652 35.2743 21.8852 35.8129L19.2154 36.8423C17.0905 35.8415 16.7444 33.7347 16.6964 32.8443ZM14.2965 40.7814C15.117 40.465 20.9165 38.229 21.7838 37.8944V48.2015C20.5641 48.4009 19.6295 49.4541 19.6295 50.7228V52.0032C19.6295 53.8807 18.9422 55.6637 17.7333 57.0453V54.2553V49.1167C17.7333 48.5907 17.3047 48.1645 16.7758 48.1645C16.2469 48.1645 15.8184 48.5907 15.8184 49.1167V53.3031H9.91487V47.5844C9.91487 43.915 12.5318 41.5081 14.2965 40.7814ZM9.91487 62.396V55.2077H15.8184V63.0955H10.6181C10.2304 63.0955 9.91487 62.7816 9.91487 62.396ZM17.7333 59.64C20.1289 57.8322 21.5444 55.0144 21.5444 52.0033V50.7229C21.5444 50.3623 21.8392 50.0692 22.2017 50.0692H30.3213C30.8502 50.0692 31.2788 49.643 31.2788 49.117C31.2788 48.591 30.8502 48.1648 30.3213 48.1648H28.3567V44.4768C29.1466 44.7683 29.9837 44.5567 30.5378 44.0124L32.4998 42.0846L34.4618 44.0124C35.0092 44.5502 35.8416 44.7695 36.6363 44.4792V48.1648H34.7894C34.2605 48.1648 33.8319 48.591 33.8319 49.117C33.8319 49.643 34.2605 50.0692 34.7894 50.0692H42.7981C43.1606 50.0692 43.4554 50.3625 43.4554 50.7229V51.9298C43.4554 54.9968 44.9131 57.8468 47.3773 59.6491V63.0956H17.7333V59.64ZM55.0851 62.396C55.0851 62.7816 54.7697 63.0955 54.382 63.0955H49.2924C49.2924 62.2594 49.2924 56.0436 49.2924 55.2077H55.0851V62.396ZM55.0851 53.3032H49.2924V49.1168C49.2924 48.5909 48.8639 48.1646 48.335 48.1646C47.8061 48.1646 47.3775 48.5909 47.3775 49.1168V57.0981C46.0987 55.7015 45.3705 53.8697 45.3705 51.9297V50.7228C45.3705 49.4516 44.4325 48.3971 43.2094 48.2004V37.8949C43.3736 37.9582 46.1878 39.042 50.7037 40.7814C52.8824 41.6778 55.085 44.3001 55.085 47.5846V53.3032H55.0851Z" fill="url(#paint1_linear_32_1055)"/>
<defs>
<linearGradient id="paint0_linear_32_1055" x1="26" y1="57.3761" x2="39" y2="57.3761" gradientUnits="userSpaceOnUse">
<stop stop-color="#C88C44"/>
<stop offset="1" stop-color="#E9C883"/>
</linearGradient>
<linearGradient id="paint1_linear_32_1055" x1="8" y1="41.4447" x2="57" y2="41.4447" gradientUnits="userSpaceOnUse">
<stop stop-color="#C88C44"/>
<stop offset="1" stop-color="#E9C883"/>
</linearGradient>
</defs>
</svg>
