<svg width="65" height="65" viewBox="0 0 65 65" fill="none" xmlns="http://www.w3.org/2000/svg">
<path d="M50.0689 8.63778H4.70444V52.8222H12.3744V50.2C12.3744 49.0856 14.0789 49.0856 14.0789 50.2V52.8222H21.7489V50.0689C21.7489 48.9544 23.4533 48.9544 23.4533 50.0689V52.8222H31.1889V50.2C31.1889 49.0856 32.8933 49.0856 32.8933 50.2V52.8222H40.5633V50.0689C40.5633 48.9544 42.2678 48.9544 42.2678 50.0689V52.8222H49.9378V50.2C49.9378 49.0856 51.6422 49.0856 51.6422 50.2V52.8222H60.1644C59.64 49.2822 54.5922 46.07 51.1178 47.0533C50.5933 47.1844 50.0033 46.7911 50.0033 46.2011V22.1422H17.8811C17.75 22.1422 17.6189 22.0767 17.4878 22.0111L9.68667 17.6844C9.09667 17.3567 9.09667 16.5044 9.68667 16.1767L17.5533 11.85C17.6844 11.7844 17.8156 11.7189 18.0122 11.7189H50.0689V8.63778ZM24.5022 17.75C23.3878 17.75 23.3878 16.0456 24.5022 16.0456H50.0689V13.4233H18.8644L18.7989 20.3722H50.0689V17.75H24.5022ZM51.8389 45.1522C54.92 44.8244 58.3944 46.5944 60.2956 48.9544V14.1444C60.2956 9.29333 56.69 5.22889 51.8389 4.77V45.1522ZM17.0944 19.7822L17.16 14.0133L11.9156 16.8978L17.0944 19.7822ZM51.7078 57.1489C51.7078 58.2633 50.0033 58.2633 50.0033 57.1489V54.5922H42.2678V60.2956H52.6256C56.4933 60.2956 59.7056 58.6567 60.1644 54.5922H51.6422V57.1489H51.7078ZM34.27 38.0067V43.4478H43.1856V38.0067H41.2844C40.17 38.0067 40.17 36.3022 41.2844 36.3022H43.1856V27.3211H42.0056L38.4 30.14C37.4822 30.7956 36.4333 29.4844 37.3511 28.7633L41.1533 25.8133C41.2844 25.6822 41.4811 25.6167 41.7433 25.6167H44.1033C44.5622 25.6167 44.9556 26.01 44.9556 26.4689V37.0889V44.3C44.9556 44.7589 44.5622 45.1522 44.1033 45.1522H21.0278C19.9133 45.1522 19.9133 43.4478 21.0278 43.4478H26.5344V34.9256H16.3078C15.1933 34.9256 15.1933 33.2211 16.3078 33.2211H26.5344V31.1233C26.5344 30.0089 28.2389 30.0089 28.2389 31.1233V36.3022H36.7611C37.8756 36.3022 37.8756 38.0067 36.7611 38.0067H34.27ZM32.5656 43.4478V38.0067H28.2389V43.4478H32.5656ZM35.0567 25.6167C36.1711 25.6167 36.1711 27.3211 35.0567 27.3211H11.5878V43.4478H14.8C15.9144 43.4478 15.9144 45.1522 14.8 45.1522H10.7356C10.2767 45.1522 9.88333 44.7589 9.88333 44.3V26.4689C9.88333 26.01 10.2767 25.6167 10.7356 25.6167H35.0567ZM14.1444 57.1489C14.1444 58.2633 12.44 58.2633 12.44 57.1489V54.5922H4.70444V60.2956H21.7489V54.5922H14.1444V57.1489ZM23.5189 54.5267V60.23H40.5633V54.5267H32.8933V57.0833C32.8933 58.1978 31.1889 58.1978 31.1889 57.0833V54.5267H23.5189ZM3.85222 6.93333H50.0689V3.85222C50.0689 3.39333 50.4622 3 50.9211 3C57.0833 3 62 8.04778 62 14.1444V53.4122C62 59.05 58.0667 61.9344 52.6911 61.9344L3.91778 62C3.39333 62 3 61.6722 3 61.1478V7.78556C3 7.32667 3.39333 6.93333 3.85222 6.93333Z" fill="url(#paint0_linear_32_1027)"/>
<defs>
<linearGradient id="paint0_linear_32_1027" x1="3" y1="40.619" x2="62" y2="40.619" gradientUnits="userSpaceOnUse">
<stop stop-color="#C88C44"/>
<stop offset="1" stop-color="#E9C883"/>
</linearGradient>
</defs>
</svg>
