<svg width="34" height="34" viewBox="0 0 34 34" fill="none" xmlns="http://www.w3.org/2000/svg">
<path d="M29.6764 5.22727H27.7727V3.81818C27.7727 3.07075 27.4758 2.35394 26.9473 1.82543C26.4188 1.29691 25.702 1 24.9545 1C24.2071 1 23.4903 1.29691 22.9618 1.82543C22.4333 2.35394 22.1364 3.07075 22.1364 3.81818V5.22727H19.3182V3.81818C19.3182 3.07075 19.0213 2.35394 18.4928 1.82543C17.9642 1.29691 17.2474 1 16.5 1C15.7526 1 15.0358 1.29691 14.5072 1.82543C13.9787 2.35394 13.6818 3.07075 13.6818 3.81818V5.22727H10.8636V3.81818C10.8636 3.07075 10.5667 2.35394 10.0382 1.82543C9.5097 1.29691 8.79288 1 8.04545 1C7.29803 1 6.58121 1.29691 6.0527 1.82543C5.52419 2.35394 5.22727 3.07075 5.22727 3.81818V5.22727H3.32359C2.70757 5.22802 2.11698 5.47306 1.68139 5.90866C1.24579 6.34426 1.00075 6.93484 1 7.55086V29.6736C1 30.2901 1.24472 30.8814 1.68039 31.3176C2.11607 31.7538 2.70708 31.9993 3.32359 32H29.6736C30.2901 32 30.8814 31.7553 31.3176 31.3196C31.7538 30.8839 31.9993 30.2929 32 29.6764V7.55086C31.9993 6.93484 31.7542 6.34426 31.3186 5.90866C30.883 5.47306 30.2924 5.22802 29.6764 5.22727ZM23.5455 3.81818C23.5455 3.44447 23.6939 3.08606 23.9582 2.8218C24.2224 2.55755 24.5808 2.40909 24.9545 2.40909C25.3283 2.40909 25.6867 2.55755 25.9509 2.8218C26.2152 3.08606 26.3636 3.44447 26.3636 3.81818V5.22727H23.5455V3.81818ZM15.0909 3.81818C15.0909 3.44447 15.2394 3.08606 15.5036 2.8218C15.7679 2.55755 16.1263 2.40909 16.5 2.40909C16.8737 2.40909 17.2321 2.55755 17.4964 2.8218C17.7606 3.08606 17.9091 3.44447 17.9091 3.81818V5.22727H15.0909V3.81818ZM6.63636 3.81818C6.63636 3.44447 6.78482 3.08606 7.04908 2.8218C7.31333 2.55755 7.67174 2.40909 8.04545 2.40909C8.41917 2.40909 8.77758 2.55755 9.04183 2.8218C9.30609 3.08606 9.45455 3.44447 9.45455 3.81818V5.22727H6.63636V3.81818ZM30.5909 29.6764C30.5905 29.9188 30.4941 30.1512 30.3226 30.3226C30.1512 30.4941 29.9188 30.5905 29.6764 30.5909H3.32359C3.08116 30.5905 2.84877 30.4941 2.67735 30.3226C2.50593 30.1512 2.40946 29.9188 2.40909 29.6764V7.55086C2.40946 7.30844 2.50593 7.07605 2.67735 6.90463C2.84877 6.7332 3.08116 6.63674 3.32359 6.63636H9.45455C9.45455 7.01008 9.30609 7.36848 9.04183 7.63274C8.77758 7.897 8.41917 8.04545 8.04545 8.04545C7.8586 8.04545 7.67939 8.11968 7.54727 8.25181C7.41514 8.38394 7.34091 8.56314 7.34091 8.75C7.34091 8.93686 7.41514 9.11606 7.54727 9.24819C7.67939 9.38032 7.8586 9.45455 8.04545 9.45455C8.79288 9.45455 9.5097 9.15763 10.0382 8.62912C10.5667 8.10061 10.8636 7.38379 10.8636 6.63636H17.9091C17.9091 7.01008 17.7606 7.36848 17.4964 7.63274C17.2321 7.897 16.8737 8.04545 16.5 8.04545C16.3131 8.04545 16.1339 8.11968 16.0018 8.25181C15.8697 8.38394 15.7955 8.56314 15.7955 8.75C15.7955 8.93686 15.8697 9.11606 16.0018 9.24819C16.1339 9.38032 16.3131 9.45455 16.5 9.45455C17.2474 9.45455 17.9642 9.15763 18.4928 8.62912C19.0213 8.10061 19.3182 7.38379 19.3182 6.63636H26.3636C26.3636 7.01008 26.2152 7.36848 25.9509 7.63274C25.6867 7.897 25.3283 8.04545 24.9545 8.04545C24.7677 8.04545 24.5885 8.11968 24.4564 8.25181C24.3242 8.38394 24.25 8.56314 24.25 8.75C24.25 8.93686 24.3242 9.11606 24.4564 9.24819C24.5885 9.38032 24.7677 9.45455 24.9545 9.45455C25.702 9.45455 26.4188 9.15763 26.9473 8.62912C27.4758 8.10061 27.7727 7.38379 27.7727 6.63636H29.6764C29.9188 6.63674 30.1512 6.7332 30.3226 6.90463C30.4941 7.07605 30.5905 7.30844 30.5909 7.55086V29.6764Z" fill="white"/>
<path d="M27.1694 11H5.83056C5.34529 11.0007 4.88011 11.1932 4.53697 11.5353C4.19383 11.8774 4.00073 12.3411 4 12.8249V27.1751C4.00073 27.6589 4.19383 28.1226 4.53697 28.4647C4.88011 28.8068 5.34529 28.9993 5.83056 29H27.1694C27.6547 28.9993 28.1199 28.8068 28.463 28.4647C28.8062 28.1226 28.9993 27.6589 29 27.1751V12.8249C28.9993 12.3411 28.8062 11.8774 28.463 11.5353C28.1199 11.1932 27.6547 11.0007 27.1694 11ZM27.6111 27.1751C27.6107 27.2917 27.5641 27.4035 27.4813 27.486C27.3986 27.5685 27.2865 27.615 27.1694 27.6154H5.83056C5.71353 27.615 5.6014 27.5685 5.51865 27.486C5.43591 27.4035 5.38926 27.2917 5.38889 27.1751V12.8249C5.38926 12.7083 5.43591 12.5965 5.51865 12.514C5.6014 12.4315 5.71353 12.385 5.83056 12.3846H27.1694C27.2865 12.385 27.3986 12.4315 27.4813 12.514C27.5641 12.5965 27.6107 12.7083 27.6111 12.8249V27.1751Z" fill="white"/>
<path d="M23 21C22.4703 21.0028 21.963 21.2407 21.5885 21.6621C21.214 22.0835 21.0025 22.6543 21 23.2502V23.7498C21 24.3466 21.2107 24.9189 21.5858 25.3409C21.9609 25.7629 22.4696 26 23 26C23.5304 26 24.0391 25.7629 24.4142 25.3409C24.7893 24.9189 25 24.3466 25 23.7498V23.2502C24.9975 22.6543 24.786 22.0835 24.4115 21.6621C24.037 21.2407 23.5297 21.0028 23 21ZM23.6667 23.7498C23.6667 23.9487 23.5964 24.1395 23.4714 24.2802C23.3464 24.4208 23.1768 24.4999 23 24.4999C22.8232 24.4999 22.6536 24.4208 22.5286 24.2802C22.4036 24.1395 22.3333 23.9487 22.3333 23.7498V23.2502C22.3333 23.0513 22.4036 22.8605 22.5286 22.7198C22.6536 22.5792 22.8232 22.5001 23 22.5001C23.1768 22.5001 23.3464 22.5792 23.4714 22.7198C23.5964 22.8605 23.6667 23.0513 23.6667 23.2502V23.7498Z" fill="white"/>
<path d="M16 21C15.4703 21.0028 14.963 21.2407 14.5885 21.6621C14.214 22.0835 14.0025 22.6543 14 23.2502V23.7498C14 24.3466 14.2107 24.9189 14.5858 25.3409C14.9609 25.7629 15.4696 26 16 26C16.5304 26 17.0391 25.7629 17.4142 25.3409C17.7893 24.9189 18 24.3466 18 23.7498V23.2502C17.9975 22.6543 17.786 22.0835 17.4115 21.6621C17.037 21.2407 16.5297 21.0028 16 21ZM16.6667 23.7498C16.6667 23.9487 16.5964 24.1395 16.4714 24.2802C16.3464 24.4208 16.1768 24.4999 16 24.4999C15.8232 24.4999 15.6536 24.4208 15.5286 24.2802C15.4036 24.1395 15.3333 23.9487 15.3333 23.7498V23.2502C15.3333 23.0513 15.4036 22.8605 15.5286 22.7198C15.6536 22.5792 15.8232 22.5001 16 22.5001C16.1768 22.5001 16.3464 22.5792 16.4714 22.7198C16.5964 22.8605 16.6667 23.0513 16.6667 23.2502V23.7498Z" fill="white"/>
<path d="M9 21C8.47032 21.0028 7.96304 21.2407 7.5885 21.6621C7.21396 22.0835 7.00245 22.6543 7 23.2502V23.7498C7 24.3466 7.21071 24.9189 7.58579 25.3409C7.96086 25.7629 8.46957 26 9 26C9.53043 26 10.0391 25.7629 10.4142 25.3409C10.7893 24.9189 11 24.3466 11 23.7498V23.2502C10.9975 22.6543 10.786 22.0835 10.4115 21.6621C10.037 21.2407 9.52968 21.0028 9 21ZM9.66667 23.7498C9.66667 23.9487 9.59643 24.1395 9.4714 24.2802C9.34638 24.4208 9.17681 24.4999 9 24.4999C8.82319 24.4999 8.65362 24.4208 8.5286 24.2802C8.40357 24.1395 8.33333 23.9487 8.33333 23.7498V23.2502C8.33333 23.0513 8.40357 22.8605 8.5286 22.7198C8.65362 22.5792 8.82319 22.5001 9 22.5001C9.17681 22.5001 9.34638 22.5792 9.4714 22.7198C9.59643 22.8605 9.66667 23.0513 9.66667 23.2502V23.7498Z" fill="white"/>
<path d="M23 14C22.4703 14.0028 21.963 14.2407 21.5885 14.6621C21.214 15.0835 21.0025 15.6543 21 16.2502V16.7498C21 17.3466 21.2107 17.9189 21.5858 18.3409C21.9609 18.7629 22.4696 19 23 19C23.5304 19 24.0391 18.7629 24.4142 18.3409C24.7893 17.9189 25 17.3466 25 16.7498V16.2502C24.9975 15.6543 24.786 15.0835 24.4115 14.6621C24.037 14.2407 23.5297 14.0028 23 14ZM23.6667 16.7498C23.6667 16.9487 23.5964 17.1395 23.4714 17.2802C23.3464 17.4208 23.1768 17.4999 23 17.4999C22.8232 17.4999 22.6536 17.4208 22.5286 17.2802C22.4036 17.1395 22.3333 16.9487 22.3333 16.7498V16.2502C22.3333 16.0513 22.4036 15.8605 22.5286 15.7198C22.6536 15.5792 22.8232 15.5001 23 15.5001C23.1768 15.5001 23.3464 15.5792 23.4714 15.7198C23.5964 15.8605 23.6667 16.0513 23.6667 16.2502V16.7498Z" fill="white"/>
<path d="M16 14C15.4703 14.0028 14.963 14.2407 14.5885 14.6621C14.214 15.0835 14.0025 15.6543 14 16.2502V16.7498C14 17.3466 14.2107 17.9189 14.5858 18.3409C14.9609 18.7629 15.4696 19 16 19C16.5304 19 17.0391 18.7629 17.4142 18.3409C17.7893 17.9189 18 17.3466 18 16.7498V16.2502C17.9975 15.6543 17.786 15.0835 17.4115 14.6621C17.037 14.2407 16.5297 14.0028 16 14ZM16.6667 16.7498C16.6667 16.9487 16.5964 17.1395 16.4714 17.2802C16.3464 17.4208 16.1768 17.4999 16 17.4999C15.8232 17.4999 15.6536 17.4208 15.5286 17.2802C15.4036 17.1395 15.3333 16.9487 15.3333 16.7498V16.2502C15.3333 16.0513 15.4036 15.8605 15.5286 15.7198C15.6536 15.5792 15.8232 15.5001 16 15.5001C16.1768 15.5001 16.3464 15.5792 16.4714 15.7198C16.5964 15.8605 16.6667 16.0513 16.6667 16.2502V16.7498Z" fill="white"/>
<path d="M9 14C8.47032 14.0028 7.96304 14.2407 7.5885 14.6621C7.21396 15.0835 7.00245 15.6543 7 16.2502V16.7498C7 17.3466 7.21071 17.9189 7.58579 18.3409C7.96086 18.7629 8.46957 19 9 19C9.53043 19 10.0391 18.7629 10.4142 18.3409C10.7893 17.9189 11 17.3466 11 16.7498V16.2502C10.9975 15.6543 10.786 15.0835 10.4115 14.6621C10.037 14.2407 9.52968 14.0028 9 14ZM9.66667 16.7498C9.66667 16.9487 9.59643 17.1395 9.4714 17.2802C9.34638 17.4208 9.17681 17.4999 9 17.4999C8.82319 17.4999 8.65362 17.4208 8.5286 17.2802C8.40357 17.1395 8.33333 16.9487 8.33333 16.7498V16.2502C8.33333 16.0513 8.40357 15.8605 8.5286 15.7198C8.65362 15.5792 8.82319 15.5001 9 15.5001C9.17681 15.5001 9.34638 15.5792 9.4714 15.7198C9.59643 15.8605 9.66667 16.0513 9.66667 16.2502V16.7498Z" fill="white"/>
</svg>
