<svg width="48" height="48" viewBox="0 0 48 48" fill="none" xmlns="http://www.w3.org/2000/svg">
<path d="M44.9002 24.1482C44.8704 22.9409 44.7813 21.7138 44.5137 20.5362C44.0777 18.6361 43.0471 17.0726 41.0851 16.4491C38.9347 15.7663 37.0123 16.4095 35.2782 17.7455C35.189 17.8148 35.1097 17.9533 35.1097 18.0523C35.0998 19.3783 35.0998 20.6945 35.0998 22.0107C35.734 21.882 36.2988 21.7138 36.8736 21.6643C37.6465 21.595 38.3699 21.7534 38.8158 22.4857C39.2617 23.2081 39.5392 24.0096 39.5491 24.8508C39.5788 28.0868 39.5788 31.3228 39.5491 34.5488C39.5392 35.9739 38.7861 36.9239 37.4582 37.3791C37.3492 37.4187 37.1907 37.577 37.1907 37.676C37.1808 39.2692 37.2006 40.8625 37.2105 42.4557C37.2105 42.7229 37.3195 42.8417 37.6168 42.8417C40.441 42.8714 43.275 40.9218 44.2561 38.24C44.9299 36.3994 45.0092 34.4796 44.9993 32.5499C44.9794 29.7691 44.9794 26.9586 44.9002 24.1482ZM39.3113 9.69018C40.6887 9.54174 42.076 9.38341 43.4534 9.23497C43.6813 9.21517 43.8002 9.1558 43.8002 8.8985C43.7903 7.29536 43.8002 5.68231 43.8002 4C41.5508 4.2573 39.3807 4.4948 37.2204 4.75209C34.7431 5.03908 32.3153 5.34585 29.8379 5.61304C29.7587 6.63233 29.6794 7.70109 29.61 8.74017C29.5704 9.3933 29.5407 10.0464 29.5109 10.7392C30.8883 10.5907 32.2063 10.4522 33.5242 10.3136C35.4566 10.1058 37.3889 9.898 39.3113 9.69018ZM33.8215 26.1472C33.8909 23.3862 33.9503 20.6252 34.0296 17.8741C34.0692 16.3007 34.1386 14.7272 34.1782 13.1439C34.1882 12.6788 34.1782 12.2137 34.1782 11.7287C33.9503 11.7287 33.7918 11.7189 33.6431 11.7287C32.4144 11.7881 31.1856 11.8772 29.947 11.9069C29.5109 11.9168 29.4118 12.085 29.4019 12.4611C29.3821 13.3319 29.3425 14.1928 29.3128 15.0637C29.1839 18.4778 29.0551 21.9018 28.9362 25.3159C28.9164 25.7711 28.9362 26.2263 28.9362 26.7607C30.5019 26.7112 31.9982 26.6618 33.5044 26.6123C33.8215 26.6024 33.8116 26.3847 33.8215 26.1472ZM35.734 37.3296C34.5548 37.201 33.9404 36.0629 33.9008 34.9546C33.8512 33.6186 33.8215 32.2728 33.8017 30.9368C33.8017 30.6004 33.7026 30.4618 33.336 30.4717C32.0279 30.5113 30.71 30.541 29.392 30.5509C29.0353 30.5509 28.9758 30.6993 28.9857 31.0061C29.0056 31.8571 28.9957 32.7082 29.0254 33.5593C29.065 34.8655 29.0155 36.1916 29.2236 37.4781C29.4911 39.1208 30.2938 40.5755 31.691 41.5354C32.9297 42.3865 34.3863 42.7229 35.9817 42.9109C35.9817 41.0901 35.9818 39.3484 35.9718 37.5968C35.9818 37.5077 35.8331 37.3395 35.734 37.3296ZM9.93007 33.5593C8.02747 33.4801 7.46264 32.8764 7.423 30.9665C7.39327 29.5118 7.423 28.0571 7.39327 26.6024C7.38336 25.9888 7.314 25.3654 7.26445 24.7419H3.04307C3.04307 26.9982 2.93406 29.1654 3.06289 31.3228C3.34035 35.7463 5.70868 38.2301 9.87061 38.7348C10.4553 38.8041 10.6733 38.6458 10.6534 38.0619C10.6237 36.8051 10.6336 35.5384 10.6534 34.2817C10.6634 33.7374 10.4553 33.579 9.93007 33.5593ZM3.01334 23.0695H7.28427C7.28427 21.8028 7.26445 20.5955 7.28427 19.3882C7.33382 16.9241 8.02747 16.1621 10.4553 15.8653C10.5048 15.8554 10.5444 15.8059 10.6435 15.7465V11.7189C7.75001 11.3923 4.56911 13.421 3.52863 16.2413C2.69624 18.4679 3.13225 20.7737 3.01334 23.0695ZM20.5331 17.884C20.543 18.7846 20.543 19.695 20.5529 20.5955C20.5529 21.2091 20.5529 21.8226 20.5529 22.4263H25.4085C25.4085 20.3382 25.4977 18.359 25.3787 16.3996C25.2796 14.6481 24.4274 13.2131 22.9113 12.2433C21.3555 11.2438 19.6214 11.0954 17.8377 11.2438C17.6693 11.2537 17.4017 11.5209 17.3918 11.6793C17.3522 12.9558 17.372 14.2423 17.372 15.5585C17.7485 15.5783 18.0161 15.5981 18.2836 15.608C19.9088 15.6673 20.5133 16.271 20.5331 17.884ZM11.5354 43H16.3513V6.91931C14.6965 7.09744 13.1209 7.26567 11.5354 7.4339V43V43ZM25.4481 24.1482C24.0311 24.1482 22.723 24.168 21.415 24.1383C20.8006 24.1185 20.6024 24.3362 20.6024 24.9498C20.6223 26.6816 20.5628 28.4035 20.5727 30.1352C20.5826 32.342 19.7304 33.5395 17.6197 33.7473C17.5504 33.7572 17.481 33.8165 17.4215 33.8462V38.3588C21.5736 38.5864 24.2293 36.3796 25.0716 33.1832C25.8742 30.2144 25.2697 27.1961 25.4481 24.1482Z" fill="white"/>
</svg>
