<svg width="40" height="40" viewBox="0 0 40 40" fill="none" xmlns="http://www.w3.org/2000/svg">
<path d="M40 35.5556V4.44444C40 2 37.9933 0 35.5444 0H4.45556C1.9 0 0 1.89556 0 4.44444V35.5556C0 38.1067 1.9 40 4.45556 40H35.5444C36.7237 39.9982 37.8543 39.5298 38.6891 38.697C39.524 37.8642 39.9953 36.7348 40 35.5556ZM31.52 23.5711C31.52 23.5711 34.0356 26.0533 34.6556 27.2044C34.6733 27.2289 34.68 27.2511 34.6867 27.26C34.9378 27.6822 35.0022 28.0156 34.8756 28.26C34.6667 28.6667 33.9556 28.8711 33.7133 28.8889H29.2711C28.96 28.8889 28.3156 28.8089 27.5333 28.2689C26.9333 27.8511 26.34 27.16 25.7622 26.4867C24.9 25.4867 24.1533 24.62 23.4022 24.62C23.3069 24.6198 23.2123 24.6355 23.1222 24.6667C22.5511 24.8489 21.8267 25.66 21.8267 27.8267C21.8267 28.5044 21.2933 28.8911 20.9156 28.8911H18.88C18.1867 28.8911 14.5756 28.6489 11.3778 25.2733C7.45333 21.14 3.92889 12.8489 3.89778 12.7756C3.67556 12.24 4.13556 11.9489 4.63556 11.9489H9.12444C9.72667 11.9489 9.92 12.3133 10.0578 12.64C10.2133 13.0111 10.8 14.5089 11.76 16.1933C13.3222 18.9333 14.2844 20.0489 15.0511 20.0489C15.1945 20.0481 15.3352 20.0106 15.46 19.94C16.4622 19.3867 16.2756 15.8133 16.2311 15.0756C16.2311 14.9356 16.2289 13.4778 15.7178 12.7778C15.3489 12.2711 14.7244 12.0778 14.3467 12.0044C14.5007 11.7922 14.7034 11.62 14.9378 11.5022C15.6244 11.16 16.8622 11.1111 18.0933 11.1111H18.7778C20.1133 11.1289 20.46 11.2156 20.9422 11.3378C21.9178 11.5711 21.9378 12.2044 21.8511 14.36C21.8267 14.9733 21.8 15.6689 21.8 16.4844C21.8 16.66 21.7933 16.8533 21.7933 17.0533C21.7622 18.1556 21.7267 19.4022 22.5044 19.9133C22.6051 19.9763 22.7213 20.0102 22.84 20.0111C23.1111 20.0111 23.9222 20.0111 26.12 16.24C27.0867 14.5756 27.8311 12.6111 27.8822 12.4644C27.9599 12.3059 28.0723 12.1669 28.2111 12.0578C28.325 11.9987 28.4517 11.9689 28.58 11.9711H33.8578C34.4356 11.9711 34.8267 12.0578 34.9 12.2778C35.0267 12.6311 34.8756 13.7089 32.4644 16.9667L31.3911 18.3889C29.2044 21.2511 29.2044 21.3978 31.52 23.5711Z" fill="url(#paint0_linear_40_296)"/>
<defs>
<linearGradient id="paint0_linear_40_296" x1="0" y1="25.5044" x2="40" y2="25.5044" gradientUnits="userSpaceOnUse">
<stop stop-color="#C88C44"/>
<stop offset="1" stop-color="#E9C883"/>
</linearGradient>
</defs>
</svg>
