<svg width="40" height="40" viewBox="0 0 40 40" fill="none" xmlns="http://www.w3.org/2000/svg">
<path d="M23.9323 30.599V26.5104C23.9323 25.6424 23.6806 25.2083 23.1771 25.2083C22.8819 25.2083 22.5955 25.3472 22.3177 25.625V31.4583C22.5955 31.7361 22.8819 31.875 23.1771 31.875C23.6806 31.875 23.9323 31.4497 23.9323 30.599ZM28.724 27.4219H30.4427V26.5365C30.4427 25.651 30.1562 25.2083 29.5833 25.2083C29.0104 25.2083 28.724 25.651 28.724 26.5365V27.4219ZM13.8542 20.4948V22.3177H11.7708V33.3333H9.84375V22.3177H7.8125V20.4948H13.8542ZM19.0885 23.776V33.3333H17.3438V32.2917C16.6667 33.0729 16.0069 33.4635 15.3646 33.4635C14.7917 33.4635 14.4271 33.2205 14.2708 32.7344C14.1667 32.4392 14.1146 31.9705 14.1146 31.3281V23.776H15.8333V30.8073C15.8333 31.224 15.842 31.4497 15.8594 31.4844C15.8767 31.7448 16.0069 31.875 16.25 31.875C16.5972 31.875 16.9618 31.6059 17.3438 31.0677V23.776H19.0885ZM25.651 26.6667V30.4688C25.651 31.3715 25.5903 32.0052 25.4688 32.3698C25.2604 33.099 24.8003 33.4635 24.0885 33.4635C23.4809 33.4635 22.8906 33.1076 22.3177 32.3958V33.3333H20.5729V20.4948H22.3177V24.6875C22.8733 23.9931 23.4635 23.6458 24.0885 23.6458C24.8003 23.6458 25.2604 24.0104 25.4688 24.7396C25.5903 25.1042 25.651 25.7465 25.651 26.6667ZM32.1875 30.026V30.2604C32.1875 30.7639 32.1701 31.1372 32.1354 31.3802C32.0833 31.7622 31.9531 32.1094 31.7448 32.4219C31.276 33.1163 30.5816 33.4635 29.6615 33.4635C28.7587 33.4635 28.0556 33.1337 27.5521 32.474C27.1875 32.0052 27.0052 31.2587 27.0052 30.2344V26.875C27.0052 25.8507 27.1788 25.1042 27.526 24.6354C28.0295 23.9757 28.724 23.6458 29.6094 23.6458C30.4948 23.6458 31.1719 23.9757 31.6406 24.6354C32.0052 25.1389 32.1875 25.8854 32.1875 26.875V28.8542H28.724V30.5469C28.724 31.4323 29.0191 31.875 29.6094 31.875C30.026 31.875 30.2865 31.6493 30.3906 31.1979C30.3906 31.1806 30.395 31.1198 30.4036 31.0156C30.4123 30.9115 30.4167 30.7682 30.4167 30.5859V30.026H32.1875ZM20.4427 8.56771V12.6302C20.4427 13.5156 20.1649 13.9583 19.6094 13.9583C19.0538 13.9583 18.776 13.5156 18.776 12.6302V8.56771C18.776 7.66493 19.0538 7.21354 19.6094 7.21354C20.1649 7.21354 20.4427 7.66493 20.4427 8.56771ZM34.3229 27.1354C34.3229 24.0625 34.158 21.8056 33.8281 20.3646C33.6545 19.6007 33.2812 18.9627 32.7083 18.4505C32.1354 17.9384 31.4757 17.6389 30.7292 17.5521C28.3681 17.2917 24.7917 17.1615 20 17.1615C15.2257 17.1615 11.658 17.2917 9.29688 17.5521C8.53299 17.6389 7.86892 17.9384 7.30469 18.4505C6.74045 18.9627 6.37153 19.6007 6.19792 20.3646C5.85069 21.875 5.67708 24.1319 5.67708 27.1354C5.67708 30.191 5.85069 32.4479 6.19792 33.9062C6.37153 34.6528 6.74045 35.2865 7.30469 35.8073C7.86892 36.3281 8.52431 36.6319 9.27083 36.7188C11.6493 36.9792 15.2257 37.1094 20 37.1094C24.7743 37.1094 28.3507 36.9792 30.7292 36.7188C31.4757 36.6319 32.1311 36.3281 32.6953 35.8073C33.2595 35.2865 33.6285 34.6528 33.8021 33.9062C34.1493 32.4479 34.3229 30.191 34.3229 27.1354ZM14.6615 10.1823L17.0052 2.47396H15.0521L13.724 7.55208L12.3438 2.47396H10.3125C10.434 2.87326 10.6337 3.47222 10.9115 4.27083L11.5365 6.06771C12.1441 7.8559 12.5434 9.22743 12.7344 10.1823V15.4167H14.6615V10.1823ZM22.1875 12.2917V8.90625C22.1875 7.89931 22.0052 7.1441 21.6406 6.64062C21.1372 5.9809 20.4601 5.65104 19.6094 5.65104C18.724 5.65104 18.0469 5.9809 17.5781 6.64062C17.2135 7.1441 17.0312 7.89931 17.0312 8.90625V12.2917C17.0312 13.2986 17.2135 14.0538 17.5781 14.5573C18.0469 15.217 18.724 15.5469 19.6094 15.5469C20.4601 15.5469 21.1372 15.217 21.6406 14.5573C22.0052 14.0885 22.1875 13.3333 22.1875 12.2917ZM26.901 15.4167H28.6458V5.78125H26.901V13.151C26.5191 13.6892 26.1545 13.9583 25.8073 13.9583C25.5469 13.9583 25.408 13.8194 25.3906 13.5417C25.3733 13.5069 25.3646 13.2812 25.3646 12.8646V5.78125H23.6198V13.4115C23.6198 14.0538 23.6719 14.5312 23.776 14.8438C23.967 15.3125 24.3403 15.5469 24.8958 15.5469C25.5208 15.5469 26.1892 15.1562 26.901 14.375V15.4167ZM40 7.5V32.5C40 34.566 39.2665 36.3325 37.7995 37.7995C36.3325 39.2665 34.566 40 32.5 40H7.5C5.43403 40 3.66753 39.2665 2.20052 37.7995C0.733507 36.3325 0 34.566 0 32.5V7.5C0 5.43403 0.733507 3.66753 2.20052 2.20052C3.66753 0.733507 5.43403 0 7.5 0H32.5C34.566 0 36.3325 0.733507 37.7995 2.20052C39.2665 3.66753 40 5.43403 40 7.5Z" fill="url(#paint0_linear_40_292)"/>
<defs>
<linearGradient id="paint0_linear_40_292" x1="0" y1="25.5044" x2="40" y2="25.5044" gradientUnits="userSpaceOnUse">
<stop stop-color="#C88C44"/>
<stop offset="1" stop-color="#E9C883"/>
</linearGradient>
</defs>
</svg>
